<svg width="659" height="973" viewBox="0 0 659 973" fill="none" xmlns="http://www.w3.org/2000/svg">
<g clip-path="url(#clip0_582_12541)">
<path d="M391.998 839.977L389.643 921.249H221.351C220.911 910.163 228.314 900.111 237.916 894.503C247.519 888.895 258.7 886.828 269.571 884.502C280.442 882.177 291.598 879.282 300.372 872.46C309.871 865.07 315.747 853.234 315.85 841.218" fill="black"/>
<path d="M611.461 790.413L652.252 861.994L492.269 921.249C487.999 910.99 491.415 899.025 498.481 890.42C505.521 881.841 515.305 876 524.675 870.031C534.044 864.062 543.518 857.498 549.367 848.04C555.709 837.833 557.08 824.679 552.991 813.387" fill="black"/>
<path d="M372.819 172.595L403.18 197.326L449.07 177.815L439.079 80.9356L403.697 100.291L385.036 110.498L383.276 137.218L382.24 153.214L372.819 172.595Z" fill="#FFB78F"/>
<path d="M403.697 100.291L385.035 110.498L383.275 137.193C397.459 132.541 409.78 122.127 416.095 108.586C411.85 105.795 407.838 103.056 403.697 100.291Z" fill="black"/>
<path d="M368.652 112.514C394.845 138.045 422.903 112.023 422.903 112.023L443.505 65.3273L444.36 63.3633L445.395 61.0117L446.585 58.2725C446.585 58.2725 446.585 58.1433 446.585 57.8591V57.704C446.585 57.4456 446.585 57.0838 446.585 56.6445C446.585 56.0502 446.586 55.3008 446.56 54.448C446.56 53.9312 446.508 53.3626 446.482 52.7425C446.042 44.9125 444.049 30.2087 435.482 18.2958C428.597 8.70857 417.493 0.956124 399.582 -1.11461e-05C388.996 -0.542682 380.247 4.03126 373.414 11.6803C372.819 12.3522 372.224 13.0758 371.628 13.7993C371.214 14.3162 370.826 14.833 370.412 15.3757C370.308 15.5049 370.205 15.6599 370.101 15.815C368.341 18.2958 366.736 20.9574 365.287 23.8258C365.235 23.8775 365.235 23.9292 365.183 24.0067C364.95 24.4202 364.769 24.8595 364.562 25.273C363.501 27.4695 362.543 29.7952 361.663 32.1726C351.414 59.9264 353.51 97.7583 368.574 112.462L368.652 112.514Z" fill="#FFB78F"/>
<path d="M428.769 7.84106C442.285 24.2185 441.199 26.5086 445.023 40.8615L437.597 45.0688L428.769 35.0459H421.412V26.4549C420.431 24.5458 416.998 20.7276 411.112 20.7276C403.755 20.7276 390.513 19.2957 380.213 20.7276C371.973 21.8731 363.794 33.7277 359.38 36.5914C363.653 23.8865 366.97 9.27289 377.27 3.54555C387.57 -2.18178 415.253 -8.53637 428.769 7.84106Z" fill="black"/>
<path d="M446.425 53.4833C447.828 53.4833 446.008 46.3751 445.023 40.8615H436.608C435.206 40.8615 436.608 46.4712 438.011 45.0688C439.413 43.6664 445.023 53.4833 446.425 53.4833Z" fill="#D3B9AA"/>
<path d="M383.302 84.2174C381.594 84.1399 379.963 83.3129 378.876 81.995C377.789 80.6771 377.271 78.9457 377.504 77.2402L380.274 56.4637L383.483 56.8771L380.714 77.6537C380.61 78.4806 380.843 79.2817 381.361 79.9019C381.878 80.5479 382.629 80.9097 383.457 80.9614L383.276 84.1916L383.302 84.2174Z" fill="black"/>
<path d="M397.382 59.513C397.304 61.0893 398.158 62.4331 399.271 62.4848C400.384 62.5365 401.393 61.2961 401.471 59.7197C401.549 58.1434 400.695 56.7996 399.582 56.748C398.443 56.6963 397.459 57.9367 397.382 59.513Z" fill="black"/>
<path d="M366.193 57.859C366.115 59.4353 366.969 60.7791 368.082 60.8307C369.195 60.8824 370.205 59.642 370.282 58.0657C370.36 56.4894 369.506 55.1456 368.393 55.0939C367.28 55.0423 366.27 56.2826 366.193 57.859Z" fill="black"/>
<path d="M405.405 45.5585C406.259 45.8945 407.114 46.2821 407.735 46.9281C408.356 47.5742 408.744 48.5045 408.537 49.3572C408.175 50.7785 406.441 51.347 404.939 51.5021C401.73 51.838 398.391 51.3212 395.466 49.9774C394.431 49.5123 393.318 48.8146 393.111 47.7034C392.619 45.1709 396.062 44.3957 397.433 44.2923C400.099 44.0856 402.946 44.5766 405.431 45.5327L405.405 45.5585Z" fill="black"/>
<path d="M372.431 43.1294C373.207 43.2844 374.009 43.517 374.657 43.9821C375.304 44.4473 375.769 45.1967 375.692 45.9719C375.588 47.2382 374.165 48.0134 372.896 48.3493C370.153 49.1246 367.202 49.1504 364.459 48.4269C363.475 48.1684 362.44 47.7291 362.077 46.8247C361.275 44.7057 364.148 43.5428 365.313 43.2327C367.59 42.6642 370.127 42.6642 372.405 43.1294H372.431Z" fill="black"/>
<path d="M387.39 85.6128C387.546 88.9722 390.393 91.5564 393.732 91.4013C397.097 91.2463 399.685 88.4037 399.53 85.0702" fill="white"/>
<path d="M434.472 55.9468C436.568 52.9233 440.528 51.4762 444.204 51.9155C447.879 52.3548 451.192 54.5255 453.548 57.3681C458.905 63.8543 458.983 74.1392 453.677 80.7029C448.397 87.2667 438.328 89.4115 430.822 85.587" fill="#FFB78F"/>
<path d="M444.489 76.6975L441.564 75.3021C443.454 71.3742 443.609 66.5935 441.952 62.5622L444.075 60.4691L451.633 63.6734L450.364 66.6452L445.964 64.7846C446.741 68.79 446.249 73.0539 444.463 76.7234L444.489 76.6975Z" fill="black"/>
<path d="M216.796 198.799L177.194 227.741C177.194 227.741 152.399 180.219 155.763 174.301C157.782 170.761 160.603 172.311 160.603 172.311C160.603 172.311 157.523 167.815 159.102 164.946C160.681 162.104 163.942 162.956 163.942 162.956C163.942 162.956 161.846 158.667 165.935 157.09C170.413 155.359 182.682 165.282 194.044 175.877" fill="#FFB78F"/>
<path d="M179.55 178.978C171.656 169.623 163.141 164.429 163.063 164.378L164.745 161.613C165.108 161.845 173.779 167.169 182.035 176.885L179.576 178.978H179.55Z" fill="black"/>
<path d="M172.095 186.472C166.686 179.857 159.594 173.603 159.516 173.525L161.665 171.096C161.975 171.355 169.041 177.583 174.606 184.431L172.095 186.472Z" fill="black"/>
<path d="M192.802 200.013C190.499 194.07 191.793 186.886 196.012 182.131L198.445 184.276C195.002 188.152 193.967 194.018 195.831 198.85L192.802 200.013Z" fill="black"/>
<path d="M110.236 176.187L139.328 216.216L240.375 140.991L210.506 94.1405L110.236 176.187Z" fill="#43A048"/>
<g opacity="0.4">
<path d="M194.407 158.15C197.461 133.678 160.63 130.164 159.025 154.3C157.524 176.859 191.638 180.425 194.407 158.15Z" fill="white"/>
</g>
<path d="M193.993 175.877C192 168.461 193.139 157.349 200.153 158.202C207.478 159.08 204.967 168.021 207.349 176.187C209.73 184.353 216.77 198.798 216.77 198.798" fill="#FFB78F"/>
<path d="M282.435 852.691H418.632L432.971 617.637L439.985 502.487L440.554 493.185L348.98 368.913L282.435 852.691Z" fill="#5A5A5A"/>
<path d="M409.236 457.885C409.236 457.885 415.215 555.54 432.971 617.637L439.985 502.513L409.236 457.885Z" fill="#A7AF38"/>
<path d="M515.744 834.215C515.744 834.215 460.096 682.706 448.423 637.277C432.764 576.317 408.459 452.562 408.459 452.562L348.954 368.939L429.192 362.711L489.861 358.008C501.794 370.877 515.149 394.212 525.58 421.397C539.065 456.619 565.052 617.741 565.052 617.741L638.637 793.592L515.744 834.24V834.215Z" fill="#5A5A5A"/>
<path d="M549.367 282.938C549.367 282.938 547.089 304.154 527.185 327.592C526.409 328.497 525.606 329.427 524.778 330.332C516.34 339.712 505.003 349.299 489.862 357.956C467.887 370.489 440.891 374.727 416.432 375.296C414.025 375.347 411.618 375.373 409.262 375.373C375.925 375.244 348.981 368.887 348.981 368.887V325.112C348.722 325.603 345.253 331.598 338.136 338.73C325.971 350.953 308.189 363.409 272.652 360.049C214.725 354.571 165.03 228.955 165.03 228.955L222.542 188.875L280.106 250.843C280.235 250.559 282.384 246.166 285.8 239.525C295.972 219.601 317.248 179.521 328.222 170.114C339.171 160.734 382.551 153.705 382.551 153.705C399.763 208.411 446.43 154.48 446.43 154.48L549.393 282.861L549.367 282.938Z" fill="#43A048"/>
<path d="M527.211 327.618C526.434 328.523 525.632 329.453 524.804 330.357C516.366 339.738 505.029 349.325 489.888 357.982C467.913 370.515 440.917 374.753 416.458 375.322L429.218 362.685L490.25 302.268L488.309 270.431L527.211 327.592V327.618Z" fill="#CCCCCC"/>
<path d="M525.58 421.371L469.103 452.329L416.431 375.348C440.891 374.753 467.912 370.515 489.861 357.982C501.793 370.851 514.14 394.574 525.58 421.371Z" fill="#414141"/>
<path d="M614.773 801.654L532.983 621.513L532.854 621.048C523.536 548.175 507.411 484.063 495.53 443.13C482.019 396.512 471.045 369.12 470.424 367.957L473.245 366.38C474.255 368.164 485.514 397.054 498.533 441.838C510.465 482.926 526.642 547.245 536.037 620.376L617.75 800.311L614.799 801.654H614.773Z" fill="#414141"/>
<path d="M527.211 327.618C526.434 328.523 525.632 329.453 524.804 330.357C516.366 339.738 505.029 349.325 489.888 357.982C467.913 370.515 440.917 374.753 416.458 375.322L429.218 362.685L490.25 302.268L488.309 270.431L527.211 327.592V327.618Z" fill="#2C712F"/>
<path d="M421.867 407.417C414.413 413.67 407.968 414.213 405.302 409.897C403.102 406.357 414.956 397.545 426.112 391.55C433.618 387.545 441.538 381.782 441.538 381.782L475.6 417.056C475.6 417.056 431.78 448.014 425.465 445.455C421.686 443.931 422.85 440.933 422.85 440.933C422.85 440.933 418.787 444.603 415.758 443.414C412.704 442.225 413.144 438.892 413.144 438.892C413.144 438.892 409.184 441.553 407.036 437.703C404.706 433.517 412.911 420.053 421.893 407.365L421.867 407.417Z" fill="#FFB78F"/>
<path d="M414.594 439.564L411.617 438.272C411.799 437.884 415.914 428.581 424.455 419.123L426.863 421.294C418.658 430.364 414.62 439.486 414.594 439.589V439.564Z" fill="black"/>
<path d="M424.171 441.838L421.479 440.055C421.686 439.719 426.94 431.889 432.945 425.454L435.3 427.651C429.451 433.878 424.222 441.76 424.145 441.838H424.171Z" fill="black"/>
<path d="M488.309 270.431L501.613 307.152L427.251 375.141L471.097 439.228C471.097 439.228 582.627 379.611 589.667 322.553C596.707 265.495 536.425 179.521 512.95 165.463C494.883 154.635 446.404 154.532 446.404 154.532" fill="#43A048"/>
<path d="M298.871 272.783L280.08 250.895C280.209 250.611 282.358 246.218 285.774 239.576L298.871 272.783Z" fill="#2C712F"/>
<path d="M338.11 338.782C345.202 331.65 348.696 325.654 348.955 325.189V266.555L338.11 338.782Z" fill="#2C712F"/>
<path d="M608.82 860.444C600.796 860.444 594.274 853.932 594.274 845.921C594.274 837.91 600.796 831.398 608.82 831.398C616.844 831.398 623.366 837.91 623.366 845.921C623.366 853.932 616.844 860.444 608.82 860.444ZM608.82 834.654C602.582 834.654 597.509 839.719 597.509 845.947C597.509 852.174 602.582 857.239 608.82 857.239C615.058 857.239 620.131 852.174 620.131 845.947C620.131 839.719 615.058 834.654 608.82 834.654Z" fill="white"/>
<path d="M361.456 907.32C353.432 907.32 346.91 900.808 346.91 892.797C346.91 884.787 353.432 878.275 361.456 878.275C369.48 878.275 376.002 884.787 376.002 892.797C376.002 900.808 369.48 907.32 361.456 907.32ZM361.456 881.531C355.218 881.531 350.145 886.596 350.145 892.823C350.145 899.051 355.218 904.116 361.456 904.116C367.694 904.116 372.767 899.051 372.767 892.823C372.767 886.596 367.694 881.531 361.456 881.531Z" fill="white"/>
<path d="M447.322 356.959L444.78 358.956L496.324 424.376L498.867 422.379L447.322 356.959Z" fill="black"/>
<path d="M236.288 203.688L176.216 254.984L178.319 257.439L238.391 206.143L236.288 203.688Z" fill="black"/>
<path d="M129.674 667.589C129.674 667.589 130.89 705.059 119.554 716.636C105.215 731.262 99.572 729.815 99.572 729.815C99.572 729.815 116.137 731.288 124.161 740.824C132.185 750.359 131.589 767.88 131.589 767.88C131.589 767.88 132.185 745.837 141.735 735.81C151.26 725.784 159.802 725.551 159.802 725.551C159.802 725.551 147.197 721.959 140.001 710.382C133.039 699.167 129.7 667.589 129.7 667.589H129.674Z" fill="#FB8A00"/>
<path d="M103.092 617.534C103.092 617.534 103.454 641.437 87.4329 651.128C103.48 656.632 105.862 680.38 105.862 680.38C105.862 680.38 106.353 654.487 123.928 649.474C109.873 645.468 103.092 617.534 103.092 617.534Z" fill="#FB8A00"/>
<path d="M480.285 397.339C480.285 397.339 480.648 421.242 464.626 430.933C480.673 436.437 483.055 460.185 483.055 460.185C483.055 460.185 483.546 434.292 501.121 429.279C487.067 425.273 480.285 397.339 480.285 397.339Z" fill="#FB8A00"/>
<path d="M146.317 899.464C173.406 899.464 195.365 877.54 195.365 850.495C195.365 823.45 173.406 801.525 146.317 801.525C119.228 801.525 97.2686 823.45 97.2686 850.495C97.2686 877.54 119.228 899.464 146.317 899.464Z" fill="black"/>
<path d="M146.317 891.608C169.06 891.608 187.497 873.201 187.497 850.495C187.497 827.788 169.06 809.381 146.317 809.381C123.574 809.381 105.137 827.788 105.137 850.495C105.137 873.201 123.574 891.608 146.317 891.608Z" fill="#FB8A00"/>
<path d="M547.607 699.115C538.574 699.115 531.198 691.776 531.198 682.732C531.198 673.687 538.548 666.348 547.607 666.348C556.666 666.348 564.017 673.687 564.017 682.732C564.017 691.776 556.666 699.115 547.607 699.115ZM547.607 670.199C540.697 670.199 535.054 675.806 535.054 682.732C535.054 689.657 540.671 695.265 547.607 695.265C554.544 695.265 560.161 689.657 560.161 682.732C560.161 675.806 554.544 670.199 547.607 670.199Z" fill="black"/>
<path d="M540.567 648.724C535.623 648.724 531.585 644.719 531.585 639.757C531.585 634.796 535.597 630.816 540.567 630.816C545.536 630.816 549.522 634.822 549.522 639.757C549.522 644.693 545.51 648.724 540.567 648.724ZM540.567 634.667C537.745 634.667 535.468 636.941 535.468 639.757C535.468 642.574 537.771 644.848 540.567 644.848C543.362 644.848 545.666 642.574 545.666 639.757C545.666 636.941 543.388 634.667 540.567 634.667Z" fill="black"/>
<path d="M61.4719 909.077C55.6741 909.077 50.8857 913.806 51.041 919.595C51.041 919.672 51.041 919.724 51.041 919.802C51.1446 922.67 52.2316 925.228 53.474 927.244C55.3376 930.242 58.7024 931.999 62.2225 931.999H152.684C158.171 931.999 162.752 927.761 163.089 922.308C163.14 921.507 163.14 920.68 163.114 919.827C163.114 919.362 163.063 918.923 163.037 918.51C162.571 913.16 158.016 909.129 152.658 909.129H61.4719V909.077Z" fill="#FBBE74"/>
<path d="M84.0424 886.75C78.2446 886.75 73.4563 891.479 73.6116 897.268C73.6116 897.345 73.6116 897.397 73.6116 897.474C73.7151 900.395 74.8799 902.849 76.1999 904.762C78.1152 907.501 81.3247 909.077 84.6636 909.077H175.28C180.948 909.077 185.633 904.555 185.711 898.896C185.711 898.431 185.711 897.965 185.711 897.474C185.711 897.009 185.659 896.57 185.633 896.157C185.167 890.807 180.612 886.776 175.254 886.776H84.0424V886.75Z" fill="#FBBE74"/>
<path d="M51.792 864.398C45.9942 864.398 41.2058 869.127 41.3611 874.915C41.3611 874.993 41.3611 875.044 41.3611 875.122C41.4646 878.042 42.6294 880.497 43.9494 882.409C45.8647 885.148 49.0742 886.725 52.4131 886.725H143.03C148.698 886.725 153.383 882.203 153.46 876.543C153.46 876.078 153.46 875.613 153.46 875.122C153.46 874.657 153.409 874.218 153.383 873.804C152.917 868.455 148.361 864.424 143.004 864.424H51.792V864.398Z" fill="#FBBE74"/>
<path d="M146.317 888.74L82.6185 888.663C81.5573 888.663 80.7031 887.784 80.7031 886.725C80.7031 885.665 81.5831 884.787 82.6444 884.787L146.342 884.864C147.404 884.864 148.258 885.743 148.258 886.802C148.258 887.862 147.404 888.74 146.317 888.74Z" fill="black"/>
<path d="M152.658 911.016H82.6187C81.5575 911.016 80.6775 910.137 80.6775 909.078C80.6775 908.018 81.5316 907.139 82.6187 907.139H152.658C153.719 907.139 154.599 908.018 154.599 909.078C154.599 910.137 153.745 911.016 152.658 911.016Z" fill="black"/>
<path d="M402.811 389.009C394.58 372.393 360.958 380.947 356.507 394.72C352.779 406.271 360.829 418.727 351.615 422.681C342.426 426.608 343.306 415.264 333.445 408.7C323.583 402.137 319.028 402.602 299.538 412.447C280.048 422.293 295.966 443.483 288.745 446.765C281.498 450.047 281.498 443.483 272.956 434.361C264.415 425.265 257.426 423.12 235.089 435.033C212.726 446.92 233.666 467.257 225.797 471.857C217.903 476.457 213.141 473.692 205.246 461.856C197.352 450.047 182.883 451.365 163.342 461.856C143.774 472.374 162.487 499.171 153.687 503.099C144.602 507.13 145.431 502.582 136.216 490.747C127.002 478.937 111.084 483.175 90.0409 496.303C77.9276 503.849 83.2854 524.108 90.015 539.949C105.001 575.3 119.755 610.729 133.498 646.597L227.609 892.375L547.808 775.623C547.808 775.623 412.44 408.338 402.811 389.009ZM110.152 520.439C103.966 520.439 98.9705 515.451 98.9705 509.275C98.9705 503.099 103.966 498.112 110.152 498.112C116.338 498.112 121.333 503.099 121.333 509.275C121.333 515.451 116.338 520.439 110.152 520.439ZM183.297 487.93C177.111 487.93 172.116 482.943 172.116 476.767C172.116 470.591 177.111 465.603 183.297 465.603C189.483 465.603 194.479 470.591 194.479 476.767C194.479 482.943 189.483 487.93 183.297 487.93ZM252.742 461.494C246.555 461.494 241.56 456.481 241.56 450.331C241.56 444.181 246.555 439.167 252.742 439.167C258.928 439.167 263.923 444.181 263.923 450.331C263.923 456.481 258.928 461.494 252.742 461.494ZM317.76 437.384C311.574 437.384 306.578 432.397 306.578 426.221C306.578 420.045 311.574 415.057 317.76 415.057C323.946 415.057 328.941 420.045 328.941 426.221C328.941 432.397 323.946 437.384 317.76 437.384ZM381.328 413.016C375.142 413.016 370.147 408.003 370.147 401.852C370.147 395.702 375.142 390.689 381.328 390.689C387.514 390.689 392.51 395.676 392.51 401.852C392.51 408.028 387.514 413.016 381.328 413.016Z" fill="#FBBE74"/>
<path d="M276.891 752.47C276.166 752.47 275.441 752.056 275.131 751.333C274.691 750.351 275.131 749.213 276.088 748.774L443.215 673.576C444.198 673.136 445.337 673.576 445.751 674.532C446.191 675.514 445.751 676.651 444.794 677.09L277.667 752.289C277.408 752.418 277.149 752.47 276.865 752.47H276.891Z" fill="black"/>
<path d="M242.518 795.289C241.664 795.289 240.809 795.263 239.955 795.186C232.216 794.514 225.202 790.896 220.207 784.952C215.211 779.009 212.83 771.489 213.503 763.788C214.176 756.062 217.799 749.058 223.753 744.071C229.68 739.084 237.212 736.68 244.951 737.378C252.69 738.05 259.704 741.668 264.7 747.611C269.695 753.529 272.076 761.075 271.403 768.776C270.73 776.502 267.107 783.505 261.154 788.493C255.873 792.937 249.325 795.289 242.492 795.289H242.518ZM242.414 741.099C236.487 741.099 230.819 743.167 226.237 747.017C221.087 751.332 217.929 757.405 217.359 764.098C216.79 770.791 218.835 777.303 223.183 782.446C227.506 787.588 233.588 790.741 240.292 791.309C246.97 791.852 253.518 789.836 258.669 785.495C263.819 781.179 266.977 775.107 267.547 768.414C268.116 761.721 266.071 755.209 261.723 750.04C257.401 744.898 251.318 741.745 244.614 741.177C243.864 741.125 243.139 741.073 242.414 741.073V741.099Z" fill="black"/>
<path d="M246.918 762.238C248.316 761.798 249.765 761.798 251.266 762.238C252.742 762.677 253.906 763.4 254.735 764.357C256.935 766.967 257.711 769.938 257.064 773.246C256.417 776.58 254.502 779.577 251.266 782.291C248.756 784.384 245.908 785.702 242.751 786.218C239.593 786.735 237.419 786.322 236.254 784.952C235.866 784.461 235.659 783.893 235.659 783.221C235.659 782.549 235.892 782.032 236.358 781.67C237.186 780.973 237.962 780.766 238.635 781.05C242.13 782.368 245.494 781.67 248.73 778.957C250.981 777.071 252.302 775.081 252.69 773.039C253.078 770.998 252.612 769.189 251.318 767.664C250.645 766.863 249.843 766.398 248.859 766.243C247.901 766.088 246.97 766.191 246.115 766.553C245.261 766.915 243.915 767.871 242.078 769.396C241.586 769.783 241.068 769.964 240.499 769.861C239.929 769.783 239.464 769.525 239.101 769.086C238.765 768.698 238.635 768.181 238.739 767.561C238.842 766.941 239.205 766.346 239.852 765.804C240.344 765.39 240.835 765.003 241.301 764.641L242.699 763.633C242.906 763.478 243.372 762.703 244.071 761.333C244.795 759.964 245.158 758.62 245.158 757.379C245.158 756.113 244.744 755.002 243.941 754.046C243.01 752.935 241.741 752.418 240.137 752.469C238.532 752.547 236.953 753.219 235.374 754.563C232.656 756.863 231.362 759.55 231.543 762.625C231.595 763.478 231.336 764.176 230.715 764.692C230.249 765.08 229.732 765.261 229.188 765.261C228.644 765.261 228.153 764.977 227.764 764.512C226.833 763.4 226.859 761.411 227.842 758.516C228.826 755.622 230.586 753.116 233.122 750.997C235.529 748.981 238.092 747.947 240.809 747.87C243.527 747.818 245.701 748.748 247.332 750.686C248.574 752.159 249.17 753.917 249.118 755.932C249.066 757.948 248.341 760.041 246.944 762.212L246.918 762.238Z" fill="black"/>
<path d="M213.943 583.027C213.218 583.027 212.493 582.613 212.183 581.89C211.743 580.934 212.183 579.771 213.141 579.332L380.267 504.133C381.225 503.694 382.39 504.133 382.83 505.089C383.27 506.045 382.83 507.208 381.872 507.647L214.745 582.846C214.486 582.975 214.228 583.027 213.943 583.027Z" fill="black"/>
<path d="M251.137 667.761C250.412 667.761 249.687 667.348 249.377 666.624C248.937 665.642 249.377 664.505 250.334 664.066L417.461 588.841C418.419 588.402 419.583 588.841 419.998 589.797C420.438 590.754 419.998 591.916 419.04 592.356L251.913 667.554C251.654 667.684 251.396 667.735 251.111 667.735L251.137 667.761Z" fill="black"/>
<path d="M166.732 583.208C166.473 583.595 166.033 584.422 165.36 585.663C163.911 588.35 162.901 589.952 162.358 590.417C161.97 590.753 161.581 590.883 161.193 590.831C160.805 590.779 160.468 590.598 160.21 590.288C159.459 589.435 159.278 588.454 159.666 587.342C160.054 586.231 161.193 584.319 163.109 581.606C165.024 578.892 166.214 577.316 166.732 576.877C167.483 576.23 168.182 576.256 168.777 576.928C169.217 577.419 169.553 578.375 169.812 579.719C170.408 582.923 171.96 587.756 174.419 594.164C176.904 600.599 179.234 605.483 181.408 608.842C181.744 609.359 181.848 609.902 181.693 610.445C181.537 611.013 181.227 611.504 180.761 611.918C179.674 612.848 178.716 612.822 177.862 611.84C176.464 610.238 174.471 606.181 171.883 599.617C169.295 593.079 167.56 587.601 166.68 583.182L166.732 583.208Z" fill="black"/>
<path d="M210.966 706.187C208.74 706.187 206.514 705.929 204.288 705.412C188.681 701.769 178.949 686.134 182.598 670.552C186.248 654.97 201.907 645.227 217.515 648.897C225.073 650.654 231.492 655.254 235.581 661.843C239.671 668.433 240.965 676.211 239.205 683.757C237.445 691.303 232.837 697.711 226.237 701.794C221.578 704.689 216.324 706.187 210.966 706.187ZM210.889 651.998C199.448 651.998 189.069 659.854 186.352 671.431C183.194 684.946 191.632 698.513 205.143 701.665C211.691 703.19 218.446 702.079 224.167 698.538C229.887 694.998 233.873 689.442 235.4 682.904C236.927 676.366 235.814 669.622 232.268 663.911C228.722 658.2 223.157 654.22 216.609 652.696C214.693 652.256 212.778 652.024 210.863 652.024L210.889 651.998Z" fill="black"/>
<path d="M171.055 623.34C170.356 623.34 169.683 623.34 168.984 623.262C161.245 622.719 154.179 619.205 149.08 613.365C143.981 607.525 141.496 600.031 142.014 592.304C142.558 584.577 146.078 577.523 151.953 572.432C157.803 567.341 165.309 564.86 173.048 565.377C180.787 565.92 187.853 569.434 192.952 575.3C198.051 581.14 200.535 588.634 200.018 596.361C199.5 604.088 195.954 611.142 190.079 616.233C184.747 620.859 178.069 623.34 171.055 623.34ZM170.977 569.15C164.92 569.15 159.123 571.321 154.49 575.326C149.417 579.719 146.362 585.844 145.871 592.562C145.405 599.255 147.579 605.742 151.979 610.832C156.405 615.897 162.513 618.947 169.243 619.438C175.947 619.825 182.443 617.732 187.542 613.339C192.615 608.946 195.669 602.821 196.161 596.103C197.145 582.277 186.636 570.209 172.789 569.253C172.194 569.202 171.598 569.202 170.977 569.202V569.15Z" fill="black"/>
<path d="M209.491 692.569C210.319 692 210.941 691.561 211.407 691.277C212.571 690.553 214.564 689.494 217.437 688.047C220.284 686.625 222.51 685.566 224.063 684.92C225.616 684.274 226.652 683.938 227.118 683.938C227.583 683.938 228.049 684.067 228.489 684.3C228.929 684.532 229.266 684.868 229.525 685.282C229.732 685.618 229.706 686.134 229.421 686.832C229.136 687.53 228.748 687.995 228.308 688.279C227.765 688.615 226.859 689.003 225.616 689.416C223.468 690.114 221.035 691.148 218.291 692.517C215.548 693.887 213.063 695.282 210.837 696.678C209.854 697.298 208.922 698.073 208.042 699.029C207.576 699.598 207.058 700.063 206.489 700.425C206.152 700.631 205.79 700.709 205.402 700.683C205.013 700.631 204.703 700.425 204.496 700.089C203.693 698.822 203.745 696.678 204.573 693.654C205.402 690.631 207.032 687.09 209.465 683.059C212.442 678.123 214.15 674.454 214.616 672.051C215.082 669.673 214.849 667.735 213.943 666.288C213.115 664.944 211.872 664.117 210.216 663.807C208.559 663.471 206.955 663.807 205.402 664.763C203.952 665.642 202.788 666.727 201.882 667.942C200.976 669.182 200.355 670.785 199.992 672.774C199.837 673.601 199.578 674.118 199.164 674.376C198.672 674.687 198.103 674.79 197.482 674.687C196.86 674.583 196.42 674.299 196.136 673.86C195.256 672.464 195.54 670.423 196.964 667.761C198.387 665.099 200.587 662.825 203.59 660.965C206.178 659.363 208.818 658.82 211.51 659.285C214.202 659.776 216.324 661.249 217.851 663.704C219.379 666.159 219.819 669.001 219.223 672.206C218.628 675.436 216.506 679.855 212.882 685.514C211.329 687.943 210.19 690.321 209.465 692.672L209.491 692.569Z" fill="black"/>
<path d="M494.909 595.388C521.998 595.388 543.957 573.463 543.957 546.418C543.957 519.373 521.998 497.448 494.909 497.448C467.82 497.448 445.861 519.373 445.861 546.418C445.861 573.463 467.82 595.388 494.909 595.388Z" fill="black"/>
<path d="M494.909 587.532C517.652 587.532 536.089 569.125 536.089 546.418C536.089 523.712 517.652 505.304 494.909 505.304C472.166 505.304 453.729 523.712 453.729 546.418C453.729 569.125 472.166 587.532 494.909 587.532Z" fill="#FB8A00"/>
<path d="M104.568 598.825C95.5085 598.825 88.1577 591.486 88.1577 582.441C88.1577 573.397 95.5085 566.058 104.568 566.058C113.627 566.058 120.977 573.397 120.977 582.441C120.977 591.486 113.627 598.825 104.568 598.825ZM104.568 569.908C97.6568 569.908 92.0143 575.516 92.0143 582.441C92.0143 589.367 97.6309 594.974 104.568 594.974C111.504 594.974 117.121 589.367 117.121 582.441C117.121 575.516 111.504 569.908 104.568 569.908Z" fill="black"/>
</g>
<defs>
<clipPath id="clip0_582_12541">
<rect width="658.645" height="972.286" fill="white"/>
</clipPath>
</defs>
</svg>
