<svg width="825" height="814" viewBox="0 0 825 814" fill="none" xmlns="http://www.w3.org/2000/svg">
<path d="M749.728 745.159L747.726 813.602H604.641C604.266 804.266 610.56 795.8 618.725 791.078C626.889 786.355 636.396 784.614 645.638 782.656C654.881 780.697 664.366 778.26 671.826 772.515C679.902 766.29 684.898 756.323 684.986 746.204" fill="black"/>
<path d="M733.421 183.122L759.234 203.948L798.251 187.518L789.757 105.93L759.674 122.23L743.808 130.826L742.311 153.329L741.431 166.8L733.421 183.122Z" fill="#FFB78F"/>
<path d="M759.675 122.23L743.808 130.826L742.312 153.307C754.371 149.39 764.846 140.619 770.216 129.216C766.607 126.866 763.196 124.559 759.675 122.23Z" fill="black"/>
<path d="M729.878 132.524C752.148 154.025 776.003 132.11 776.003 132.11L793.52 92.7855L794.246 91.1316L795.126 89.1512L796.139 86.8444C796.139 86.8444 796.139 86.7356 796.139 86.4962V86.3656C796.139 86.148 796.139 85.8433 796.139 85.4734C796.139 84.9728 796.139 84.3417 796.117 83.6235C796.117 83.1883 796.073 82.7095 796.051 82.1872C795.676 75.5932 793.982 63.2103 786.698 53.1778C780.844 45.104 771.404 38.5752 756.175 37.77C747.175 37.313 739.736 41.165 733.927 47.6066C733.421 48.1725 732.915 48.7818 732.408 49.3912C732.056 49.8264 731.726 50.2617 731.374 50.7187C731.286 50.8275 731.198 50.9581 731.11 51.0886C729.614 53.1778 728.249 55.4194 727.017 57.835C726.973 57.8785 726.973 57.9221 726.929 57.9873C726.731 58.3355 726.577 58.7055 726.401 59.0537C725.498 60.9035 724.684 62.8621 723.936 64.8643C715.221 88.2372 717.004 120.097 729.812 132.48L729.878 132.524Z" fill="#FFB78F"/>
<path d="M742.334 108.694C740.881 108.629 739.495 107.932 738.571 106.822C737.646 105.712 737.206 104.254 737.404 102.818L739.759 85.321L742.488 85.6692L740.133 103.166C740.045 103.863 740.243 104.537 740.683 105.06C741.123 105.604 741.762 105.908 742.466 105.952L742.312 108.672L742.334 108.694Z" fill="black"/>
<path d="M754.305 87.8889C754.239 89.2164 754.966 90.3481 755.912 90.3916C756.858 90.4351 757.716 89.3905 757.782 88.063C757.848 86.7355 757.122 85.6039 756.176 85.5603C755.208 85.5168 754.371 86.5614 754.305 87.8889Z" fill="black"/>
<path d="M727.787 86.4962C727.721 87.8237 728.448 88.9554 729.394 88.9989C730.34 89.0424 731.198 87.9978 731.264 86.6703C731.33 85.3428 730.604 84.2112 729.658 84.1676C728.712 84.1241 727.853 85.1687 727.787 86.4962Z" fill="black"/>
<path d="M761.127 76.1373C761.853 76.4202 762.579 76.7466 763.108 77.2907C763.636 77.8347 763.966 78.6182 763.79 79.3364C763.482 80.5333 762.007 81.0121 760.731 81.1426C758.002 81.4255 755.163 80.9903 752.677 79.8587C751.796 79.4669 750.85 78.8793 750.674 77.9436C750.256 75.8108 753.183 75.158 754.349 75.0709C756.616 74.8968 759.036 75.3103 761.149 76.1155L761.127 76.1373Z" fill="black"/>
<path d="M733.091 74.0918C733.751 74.2223 734.434 74.4182 734.984 74.8099C735.534 75.2017 735.93 75.8328 735.864 76.4856C735.776 77.552 734.566 78.2049 733.487 78.4878C731.155 79.1407 728.646 79.1624 726.313 78.5531C725.477 78.3355 724.597 77.9655 724.289 77.2038C723.606 75.4193 726.049 74.44 727.039 74.1788C728.976 73.7 731.133 73.7001 733.069 74.0918H733.091Z" fill="black"/>
<path d="M745.81 109.869C745.942 112.698 748.363 114.875 751.202 114.744C754.063 114.613 756.263 112.22 756.131 109.412" fill="white"/>
<path d="M785.839 84.8859C787.622 82.3397 790.989 81.121 794.114 81.4909C797.238 81.8609 800.055 83.6889 802.058 86.0828C806.613 91.5452 806.679 100.207 802.168 105.734C797.679 111.262 789.118 113.068 782.736 109.847" fill="#FFB78F"/>
<path d="M794.356 102.361L791.869 101.186C793.476 97.878 793.608 93.8519 792.199 90.457L794.004 88.6942L800.43 91.3928L799.352 93.8954L795.61 92.3285C796.271 95.7017 795.853 99.2925 794.334 102.383L794.356 102.361Z" fill="black"/>
<path d="M600.768 205.188L567.098 229.562C567.098 229.562 546.016 189.541 548.877 184.558C550.593 181.576 552.992 182.882 552.992 182.882C552.992 182.882 550.373 179.095 551.716 176.68C553.058 174.286 555.831 175.004 555.831 175.004C555.831 175.004 554.048 171.391 557.525 170.064C561.332 168.606 571.763 176.963 581.424 185.885" fill="#FFB78F"/>
<path d="M569.1 188.497C562.388 180.619 555.148 176.244 555.082 176.201L556.513 173.872C556.821 174.068 564.193 178.551 571.213 186.734L569.122 188.497H569.1Z" fill="black"/>
<path d="M562.762 194.808C558.163 189.237 552.133 183.97 552.067 183.905L553.894 181.859C554.158 182.077 560.166 187.322 564.897 193.089L562.762 194.808Z" fill="black"/>
<path d="M580.367 206.211C578.409 201.206 579.509 195.156 583.096 191.152L585.165 192.958C582.238 196.222 581.358 201.162 582.942 205.232L580.367 206.211Z" fill="black"/>
<path d="M510.167 186.146L534.902 219.856L620.815 156.506L595.419 117.051L510.167 186.146Z" fill="#43A048"/>
<g opacity="0.4">
<path d="M581.732 170.956C584.329 150.347 553.014 147.387 551.649 167.714C550.373 186.712 579.377 189.715 581.732 170.956Z" fill="white"/>
</g>
<path d="M581.38 185.885C579.685 179.64 580.654 170.282 586.617 171C592.845 171.74 590.71 179.27 592.735 186.147C594.76 193.023 600.745 205.189 600.745 205.189" fill="#FFB78F"/>
<path d="M656.575 755.866H772.372L784.564 557.915L790.527 460.941L791.011 453.107L713.153 348.451L656.575 755.866Z" fill="#2A2A2A"/>
<path d="M764.384 423.379C764.384 423.379 769.467 505.62 784.563 557.915L790.527 460.963L764.384 423.379Z" fill="#2A2A2A"/>
<path d="M854.94 740.306C854.94 740.306 807.626 612.713 797.701 574.454C784.388 523.117 763.724 418.896 763.724 418.896L713.131 348.473L781.351 343.228L832.933 339.267C843.078 350.105 854.434 369.757 863.302 392.651C874.767 422.313 896.862 558.002 896.862 558.002L959.426 706.096L854.94 740.328V740.306Z" fill="#2A2A2A"/>
<path d="M883.526 276.047C883.526 276.047 881.59 293.914 864.667 313.653C864.007 314.415 863.324 315.198 862.62 315.96C855.446 323.86 845.807 331.933 832.934 339.224C814.25 349.779 791.298 353.348 770.502 353.827C768.455 353.87 766.409 353.892 764.406 353.892C736.062 353.783 713.153 348.429 713.153 348.429V311.564C712.933 311.977 709.985 317.026 703.933 323.033C693.59 333.326 678.472 343.816 648.257 340.987C599.007 336.373 556.755 230.586 556.755 230.586L605.653 196.832L654.595 249.018C654.705 248.779 656.531 245.079 659.436 239.486C668.085 222.708 686.174 188.954 695.504 181.032C704.813 173.133 741.696 167.213 741.696 167.213C756.33 213.284 796.007 167.866 796.007 167.866L883.548 275.982L883.526 276.047Z" fill="#43A048"/>
<path d="M864.689 313.675C864.029 314.436 863.347 315.22 862.642 315.982C855.468 323.881 845.83 331.955 832.956 339.246C814.272 349.8 791.32 353.37 770.524 353.848L781.373 343.206L833.264 292.326L831.613 265.514L864.689 313.653V313.675Z" fill="#CCCCCC"/>
<path d="M863.302 392.629L815.284 418.7L770.501 353.87C791.297 353.369 814.272 349.8 832.933 339.246C843.078 350.083 853.575 370.061 863.302 392.629Z" fill="#2A2A2A"/>
<path d="M939.136 712.885L869.596 561.179L869.486 560.788C861.563 499.417 847.854 445.425 837.753 410.953C826.265 371.693 816.935 348.625 816.406 347.646L818.805 346.318C819.663 347.82 829.236 372.15 840.305 409.865C850.45 444.467 864.204 498.634 872.192 560.222L941.666 711.754L939.158 712.885H939.136Z" fill="#2A2A2A"/>
<path d="M864.689 313.675C864.029 314.436 863.347 315.22 862.642 315.982C855.468 323.881 845.83 331.955 832.956 339.246C814.272 349.8 791.32 353.37 770.524 353.848L781.373 343.206L833.264 292.326L831.613 265.514L864.689 313.653V313.675Z" fill="#2C712F"/>
<path d="M775.122 380.877C768.785 386.144 763.305 386.601 761.038 382.966C759.168 379.985 769.247 372.564 778.731 367.515C785.113 364.142 791.847 359.289 791.847 359.289L820.807 388.995C820.807 388.995 783.551 415.066 778.181 412.912C774.968 411.628 775.959 409.103 775.959 409.103C775.959 409.103 772.504 412.193 769.929 411.192C767.332 410.191 767.706 407.384 767.706 407.384C767.706 407.384 764.339 409.625 762.513 406.383C760.532 402.857 767.508 391.519 775.144 380.834L775.122 380.877Z" fill="#FFB78F"/>
<path d="M768.939 407.95L766.408 406.862C766.562 406.535 770.061 398.701 777.323 390.736L779.37 392.564C772.394 400.202 768.961 407.884 768.939 407.971V407.95Z" fill="black"/>
<path d="M777.081 409.865L774.792 408.363C774.968 408.08 779.435 401.486 784.541 396.067L786.543 397.917C781.57 403.162 777.125 409.799 777.059 409.865H777.081Z" fill="black"/>
<path d="M831.614 265.514L842.925 296.439L779.701 353.696L816.979 407.667C816.979 407.667 911.805 357.461 917.79 309.409C923.776 261.358 872.523 188.954 852.564 177.115C837.203 167.997 795.985 167.91 795.985 167.91" fill="#43A048"/>
<path d="M670.549 267.495L654.572 249.062C654.682 248.823 656.509 245.123 659.413 239.53L670.549 267.495Z" fill="#2C712F"/>
<path d="M703.91 323.076C709.94 317.07 712.911 312.021 713.131 311.629V262.25L703.91 323.076Z" fill="#2C712F"/>
<path d="M723.76 801.872C716.938 801.872 711.392 796.388 711.392 789.641C711.392 782.895 716.938 777.411 723.76 777.411C730.582 777.411 736.127 782.895 736.127 789.641C736.127 796.388 730.582 801.872 723.76 801.872ZM723.76 780.153C718.456 780.153 714.143 784.418 714.143 789.663C714.143 794.908 718.456 799.173 723.76 799.173C729.063 799.173 733.376 794.908 733.376 789.663C733.376 784.418 729.063 780.153 723.76 780.153Z" fill="white"/>
<path d="M796.766 338.384L794.604 340.066L838.428 395.159L840.591 393.477L796.766 338.384Z" fill="black"/>
<path d="M617.338 209.306L566.264 252.506L568.052 254.573L619.126 211.374L617.338 209.306Z" fill="black"/>
<path d="M781.224 44.0429C792.371 57.5504 791.476 59.4392 794.63 71.2769L788.505 74.7469L781.224 66.4805H775.156V59.3949C774.347 57.8203 771.516 54.6712 766.661 54.6712C760.594 54.6712 749.672 53.4903 741.177 54.6712C734.381 55.6159 726.557 65.4451 722.917 67.8069C726.441 57.3284 730.255 45.2238 738.75 40.5001C747.244 35.7764 770.077 30.5353 781.224 44.0429Z" fill="black"/>
<path d="M795.787 81.6871C796.943 81.6871 795.443 75.8245 794.63 71.277H787.69C786.533 71.277 787.69 75.9037 788.847 74.747C790.003 73.5904 794.63 81.6871 795.787 81.6871Z" fill="#D3B9AA"/>
<g clip-path="url(#clip0_582_12415)">
<path d="M296.611 278.446L281.614 392.486V392.538L265.86 391.228L179.735 384.05L110.434 378.286L124.57 325.523L143.558 254.684L296.611 278.446Z" fill="#43A048"/>
<path d="M431.849 367.86L407.306 412.553C407.306 412.553 459.445 431.835 465.079 427.565C468.443 424.998 466.487 422.325 466.487 422.325C466.487 422.325 471.521 424.919 474.26 422.902C476.972 420.884 475.668 417.662 475.668 417.662C475.668 417.662 480.337 419.26 481.458 414.833C482.658 409.986 470.843 398.669 458.428 388.347" fill="#B0614E"/>
<path d="M474.391 418.684C474.391 418.684 467.818 410.51 457.176 403.594L458.95 400.843C470.035 408.047 476.66 416.274 476.947 416.64L474.391 418.684Z" fill="black"/>
<path d="M465.418 423.556C465.418 423.556 457.958 416.981 450.446 412.291L452.168 409.514C459.914 414.361 467.27 420.832 467.583 421.094L465.418 423.556Z" fill="black"/>
<path d="M437.901 393.219C436.518 393.219 435.136 393.062 433.78 392.722L434.562 389.552C439.805 390.835 445.699 388.975 449.247 384.914L451.698 387.063C448.281 390.992 443.091 393.219 437.901 393.219Z" fill="black"/>
<path d="M458.428 388.32C466.305 389.394 477.573 386.748 475.799 379.622C473.921 372.182 465.079 375.955 456.368 374.592C447.656 373.23 431.876 367.86 431.876 367.86" fill="#B0614E"/>
<path d="M270.815 176.457L237.977 198.489L193.82 174.335L213.199 77.5328L246.819 100.509L264.556 112.612L263.721 139.727L263.225 155.97L270.815 176.457Z" fill="#B0614E"/>
<path d="M246.819 100.509L264.555 112.638L263.721 139.753C249.949 133.702 238.577 121.991 233.569 107.713C238.108 105.303 242.385 102.919 246.819 100.535V100.509Z" fill="black"/>
<path d="M277.753 119.266C246.897 139.57 224.205 108.211 224.205 108.211L212.912 57.7535L212.442 55.6314L211.894 53.0902L211.242 50.156C211.242 50.156 211.242 50.0251 211.295 49.7369V49.5797C211.373 49.3177 211.425 48.9771 211.529 48.5318C211.555 48.3484 211.608 48.165 211.634 47.9816C211.738 47.51 211.842 46.9599 211.973 46.3573C212.103 45.8334 212.234 45.2832 212.39 44.6807C214.32 36.9784 219.172 22.7267 229.944 12.5618C238.603 4.36186 251.097 -1.19213 268.989 1.34908C278.144 2.65898 285.187 7.53182 290.325 14.6053C291.133 15.7056 291.89 16.8583 292.594 18.0634C293.064 18.8756 293.507 19.6615 293.924 20.4999C294.237 21.1024 294.524 21.705 294.811 22.3075C294.889 22.4647 294.968 22.6219 295.02 22.8053C296.298 25.6085 297.367 28.5951 298.228 31.7388C298.254 31.8174 298.28 31.8436 298.28 31.9222C298.41 32.3938 298.541 32.8391 298.645 33.3107C299.271 35.7209 299.767 38.2097 300.158 40.7509C304.905 70.3547 295.463 107.582 277.727 119.266H277.753Z" fill="#B0614E"/>
<path d="M269.642 88.3264C269.355 88.3264 269.068 88.3264 268.781 88.274L269.25 85.0255C270.085 85.1303 270.894 84.9207 271.546 84.3967C272.198 83.8728 272.589 83.113 272.641 82.2747L273.945 61.0543L277.206 61.2638L275.902 82.4843C275.797 84.2133 274.963 85.8376 273.632 86.9379C272.511 87.8549 271.128 88.3526 269.694 88.3526L269.642 88.3264Z" fill="black"/>
<path d="M259.652 60.9495C259.417 62.5476 258.322 63.7003 257.2 63.5431C256.079 63.3859 255.322 61.9712 255.557 60.3731C255.792 58.7751 256.887 57.6223 258.009 57.7795C259.13 57.9367 259.887 59.3514 259.652 60.9495Z" fill="black"/>
<path d="M290.821 65.3769C290.586 66.975 289.491 68.1277 288.369 67.9705C287.248 67.8133 286.491 66.3986 286.726 64.8005C286.961 63.2024 288.056 62.0497 289.178 62.2069C290.299 62.3641 291.056 63.7788 290.821 65.3769Z" fill="black"/>
<path d="M254.436 45.4926C253.524 45.6498 252.611 45.8856 251.854 46.4096C251.098 46.9335 250.55 47.7719 250.602 48.6626C250.681 50.1297 252.298 51.0466 253.758 51.492C256.862 52.4613 260.253 52.5661 263.435 51.8326C264.556 51.5706 265.782 51.0728 266.2 50.0511C267.191 47.6147 263.931 46.2 262.6 45.8332C259.992 45.0997 257.097 45.0473 254.463 45.5188L254.436 45.4926Z" fill="black"/>
<path d="M287.508 49.5009C286.7 49.5009 285.865 49.5794 285.135 49.8938C284.405 50.2344 283.805 50.8894 283.726 51.6753C283.596 52.959 284.848 53.9807 286.022 54.6095C288.578 55.9194 291.499 56.5219 294.342 56.3385C295.359 56.2861 296.481 56.0504 297.002 55.1858C298.202 53.221 295.594 51.5181 294.499 50.9941C292.36 49.9724 289.856 49.5009 287.508 49.5009Z" fill="black"/>
<path d="M264.452 88.8504C263.643 92.1514 260.331 94.1686 257.044 93.3827C253.758 92.5705 251.75 89.2434 252.532 85.9424" fill="white"/>
<path d="M290.326 14.6052C281.301 14.4743 272.198 12.0378 265.182 7.1388C263.174 11.5139 259.574 15.1554 255.245 17.1727C250.889 19.2161 244.107 18.9017 239.491 17.5918C237.508 32.1579 225.902 44.8902 211.635 48.1125C211.635 48.0601 211.635 48.0078 211.635 47.9554C211.739 47.4838 211.843 46.9336 211.974 46.3311C212.104 45.8071 212.234 45.257 212.391 44.6544C214.321 36.9522 219.172 22.7004 229.945 12.5356C238.604 4.33561 251.097 -1.21837 268.99 1.32284C278.145 2.63274 285.187 7.50557 290.326 14.579V14.6052Z" fill="black"/>
<path d="M296.108 25.0103C297.264 22.697 290.486 13.0613 286.854 9.9736L271.817 4.19025L261.407 6.50359L241.744 12.2869L232.491 20.3836C232.105 23.0825 232.491 28.249 237.117 27.3236C242.901 26.167 254.467 22.697 266.034 20.3836C275.287 18.533 294.951 27.3236 296.108 25.0103Z" fill="black"/>
<path d="M223.658 50.1821C222.172 46.7501 218.52 44.5495 214.816 44.2613C211.113 43.9994 207.409 45.4926 204.54 47.8505C197.967 53.2735 195.906 63.4907 199.871 71.0357C203.809 78.607 213.356 82.6939 221.52 80.336" fill="#B0614E"/>
<path d="M209.73 68.8612C208.686 64.8791 209.026 60.5303 210.564 56.7053L205.843 57.7009L205.165 54.5047L213.277 52.7756L214.972 55.2906C212.547 58.9846 211.764 63.7526 212.886 68.0491L209.73 68.8874V68.8612Z" fill="black"/>
<path d="M444.108 359.266L410.983 427.408C410.983 427.408 346.194 411.715 296.507 370.846C292.803 367.807 289.204 364.637 285.709 361.31C280.336 356.228 275.25 350.778 270.555 345.015H110.434L197.915 153.848C197.915 153.848 242.959 189.713 263.225 155.996C263.225 155.996 318.208 169.462 327.363 182.587C338.395 198.437 350.237 272.918 350.237 272.918L444.108 359.293V359.266Z" fill="#43A048"/>
<path d="M67.0583 566.86L0 583.495L38.1327 688.078H102.818C100.601 678.621 97.5228 673.119 89.9589 667.015C85.8117 663.688 81.1169 661.12 76.9958 657.741C72.8748 654.387 69.2493 649.934 68.4929 644.668C67.7104 639.324 70.0318 633.927 73.4747 629.787C76.9176 625.674 81.4559 622.609 85.9161 619.596" fill="black"/>
<path d="M479.581 625.491C470.4 653.366 446.378 668.037 415.991 674.56C412.809 675.241 409.575 675.844 406.263 676.342C336.283 687.109 239.543 660.439 208.191 650.929C207.565 650.746 206.965 650.563 206.392 650.379C200.993 648.703 197.967 647.681 197.967 647.681L163.251 558.948C163.251 558.948 147.81 556.512 129.5 546.294C123.371 542.863 116.928 538.566 110.616 533.195C89.0983 514.857 69.3537 483.996 70.1884 432.621C70.3449 423.845 71.0752 414.44 72.5358 404.432L179.735 384.05L247.654 371.134C247.654 371.134 255.349 375.64 267.921 383.657C271.989 386.251 276.58 389.211 281.614 392.486C351.88 438.489 504.75 549.045 479.581 625.491Z" fill="#2A2A2A"/>
<path d="M78.4484 584.38L6.67578 601.355L7.42305 604.543L79.1956 587.568L78.4484 584.38Z" fill="white"/>
<path d="M206.391 650.353C206.965 650.536 207.565 650.72 208.191 650.903C239.516 660.439 336.256 687.083 406.262 676.315C419.642 667.46 429.11 650.798 431.458 641.315C455.115 545.43 268.963 445.615 268.963 445.615L292.62 594.577L206.391 650.353Z" fill="#2A2A2A"/>
<path d="M268.963 445.642C268.963 445.642 442.021 558.896 419.642 630.259C401.489 688.105 312.365 688.105 312.365 688.105H110.433L48.9043 555.778L253.183 549.438" fill="#2A2A2A"/>
<path d="M443.135 580.7L375.698 687.27L378.449 689.026L445.886 582.456L443.135 580.7Z" fill="white"/>
<path d="M110.643 533.195C116.746 539.116 132.526 548.626 142.777 552.582L245.412 549.202L110.643 533.169V533.195Z" fill="#2A2A2A"/>
<path d="M267.947 383.657L265.86 391.228L245.333 466.233C245.333 466.233 130.909 473.752 70.2146 432.621C70.3711 423.845 71.1014 414.44 72.562 404.432L179.761 384.05L247.681 371.134C247.681 371.134 255.375 375.64 267.947 383.657Z" fill="#2A2A2A"/>
<path d="M270.581 372.732L267.946 383.657C255.349 375.667 247.68 371.134 247.68 371.134L179.761 384.05L110.46 378.286L124.596 325.524L169.615 286.358L173.554 314.101L270.581 372.732Z" fill="#2C712F"/>
<path d="M378.641 688.471L375.459 688.392L334.457 480.013L337.639 479.384L377.233 680.507L430.311 462.277L433.467 463.063L378.641 688.471Z" fill="black"/>
<path d="M284.902 408.624C294.578 411.375 300.89 409.148 301.594 403.908C302.168 399.612 287.223 396.284 274.156 395.368C265.366 394.765 255.428 392.643 255.428 392.643" fill="#B0614E"/>
<path d="M322.121 529.685L370.608 517.87L339.048 394.294L283.857 404.223L322.121 529.685Z" fill="#43A048"/>
<g opacity="0.4">
<path d="M337.484 443.939C315.81 431.652 298.413 464.792 320.348 475.586C340.849 485.672 357.203 455.125 337.484 443.939Z" fill="white"/>
</g>
<path d="M255.428 392.669L238.292 440.717C238.292 440.717 292.83 451.432 297.708 446.297C300.629 443.232 298.255 440.9 298.255 440.9C298.255 440.9 303.654 442.655 306.002 440.245C308.375 437.835 306.55 434.848 306.55 434.848C306.55 434.848 311.427 435.687 311.818 431.128C312.236 426.15 298.777 416.85 284.901 408.65" fill="#B0614E"/>
<path d="M305.481 436.027C305.481 436.027 297.682 429.006 286.102 423.897L287.406 420.911C299.508 426.255 307.333 433.329 307.672 433.617L305.481 436.053V436.027Z" fill="black"/>
<path d="M297.394 442.288C297.394 442.288 288.995 436.996 280.832 433.564L282.084 430.552C290.508 434.088 298.776 439.302 299.115 439.537L297.368 442.314L297.394 442.288Z" fill="black"/>
<path d="M169.589 286.383L166.433 318.869L259.235 378.234L238.213 454.365C238.213 454.365 60.7206 472.599 48.8791 363.249C36.516 249.025 119.093 169.907 133.282 163.593C141.342 160.004 197.889 153.874 197.889 153.874" fill="#43A048"/>
<path d="M296.507 370.846C292.803 367.807 289.204 364.637 285.708 361.31L295.542 286.384L296.507 370.846Z" fill="#2C712F"/>
<mask id="mask0_582_12415" style="mask-type:luminance" maskUnits="userSpaceOnUse" x="47" y="153" width="398" height="303">
<path d="M350.237 272.918C350.237 272.918 338.395 198.437 327.363 182.587C318.208 169.435 263.225 155.996 263.225 155.996C242.959 189.713 197.915 153.848 197.915 153.848C197.915 153.848 141.368 159.978 133.308 163.567C119.119 169.907 36.5416 249.025 48.9048 363.222C60.7462 472.573 238.238 454.339 238.238 454.339L259.261 378.208L207.33 344.989H270.581C275.276 350.778 280.362 356.201 285.735 361.284C289.23 364.611 292.829 367.781 296.533 370.82C346.22 411.689 411.009 427.381 411.009 427.381L444.134 359.24L350.263 272.865L350.237 272.918Z" fill="white"/>
</mask>
<g mask="url(#mask0_582_12415)">
<path d="M238.239 191.023C231.093 191.023 223.607 189.215 216.617 185.626C202.663 178.421 191.995 165.768 183.414 154.345L186.022 152.381C194.394 163.515 204.749 175.828 218.129 182.718C231.927 189.844 247.603 189.398 258.062 181.618C263.644 177.452 268.286 171.086 271.834 162.703C275.042 155.131 276.972 146.879 278.85 138.915L282.032 139.674C280.128 147.796 278.146 156.179 274.833 163.986C271.051 172.92 266.069 179.731 260.018 184.264C253.941 188.77 246.325 191.049 238.265 191.049L238.239 191.023Z" fill="black"/>
</g>
<path d="M98.1746 432.569L95.0968 431.521C102.791 408.86 102.191 391.595 93.2971 380.225C79.369 362.437 49.3479 364.952 49.035 364.978L48.748 361.729C49.061 361.703 56.8336 361.022 66.5103 362.646C79.4473 364.847 89.6195 370.217 95.8532 378.182C105.504 390.495 106.286 408.781 98.2006 432.569H98.1746Z" fill="white"/>
<path d="M95.7396 553.757L92.7156 554.981L146.368 688.698L149.392 687.474L95.7396 553.757Z" fill="black"/>
<path d="M602.352 539.64C588.711 539.64 577.626 528.506 577.626 514.804C577.626 501.103 588.711 489.969 602.352 489.969C615.993 489.969 627.078 501.103 627.078 514.804C627.078 528.506 615.993 539.64 602.352 539.64ZM602.352 493.846C590.824 493.846 581.46 503.251 581.46 514.831C581.46 526.41 590.824 535.815 602.352 535.815C613.881 535.815 623.244 526.41 623.244 514.831C623.244 503.251 613.881 493.846 602.352 493.846Z" fill="black"/>
<path d="M634.199 483.865C626.739 483.865 620.662 477.76 620.662 470.268C620.662 462.775 626.739 456.671 634.199 456.671C641.659 456.671 647.736 462.775 647.736 470.268C647.736 477.76 641.659 483.865 634.199 483.865ZM634.199 460.522C628.852 460.522 624.496 464.897 624.496 470.268C624.496 475.638 628.852 480.013 634.199 480.013C639.546 480.013 643.902 475.638 643.902 470.268C643.902 464.897 639.546 460.522 634.199 460.522Z" fill="black"/>
<path d="M258.661 592.586C258.661 592.586 210.148 535.815 231.457 515.433C252.767 495.051 302.323 538.906 302.323 538.906L258.687 592.586H258.661Z" fill="#FB8A00"/>
<path d="M522.93 754.386C492.178 779.195 412.131 792.818 333.179 781.893C254.227 770.969 234.065 743.854 234.065 741.025C234.065 738.195 252.61 725.646 250.993 722.005C249.584 718.809 217.033 719.804 207.017 720.119C206.313 720.119 205.635 719.883 205.139 719.464C204.513 718.966 204.122 718.206 204.096 717.342C203.913 711.159 204.279 700.444 204.279 700.444C204.279 700.444 204.409 685.066 204.174 675.11C204.174 674.115 204.435 673.172 204.931 672.359C205.478 671.495 206.313 670.788 207.33 670.421C216.824 666.91 242.516 657.662 242.516 657.662C242.516 657.662 241.759 647.157 244.576 607.074C245.28 597.066 248.436 587.006 252.74 577.523C269.224 541.448 301.932 515.643 340.378 506.447C368.703 499.688 400.811 497.54 439.152 497.802C502.403 498.221 537.849 569.034 542.283 592.56C546.717 616.112 553.681 729.524 522.956 754.333L522.93 754.386Z" fill="#FBBE74"/>
<path d="M205.139 719.464C204.513 718.966 204.122 718.206 204.096 717.342C203.913 711.159 204.279 700.444 204.279 700.444C204.279 700.444 204.409 685.066 204.174 675.11C204.174 674.115 204.435 673.172 204.931 672.359C210.982 674.298 223.084 683.022 223.084 695.912C223.084 711.29 211.921 715.141 205.139 719.464Z" fill="#FB8A00"/>
<path d="M326.267 770.262V788.155C326.267 801.699 337.196 812.703 350.707 812.703C364.191 812.703 375.146 801.726 375.146 788.155V770.262C375.146 770.262 366.043 761.328 349.272 761.538C332.501 761.747 326.293 770.262 326.293 770.262H326.267Z" fill="#FB8A00"/>
<path d="M405.819 770.262V788.155C405.819 801.699 416.748 812.703 430.259 812.703C443.743 812.703 454.698 801.726 454.698 788.155V770.262C454.698 770.262 445.595 761.328 428.824 761.538C412.053 761.747 405.845 770.262 405.845 770.262H405.819Z" fill="#FB8A00"/>
<path d="M278.484 637.883C278.484 644.537 275.068 649.934 270.842 649.934C266.617 649.934 263.2 644.537 263.2 637.883C263.2 631.229 266.617 625.832 270.842 625.832C275.068 625.832 278.484 631.229 278.484 637.883Z" fill="black"/>
<path d="M446.248 526.227C446.248 527.93 445.413 529.344 444.344 529.344H370.738C369.695 529.344 368.834 527.93 368.834 526.227C368.834 524.524 369.695 523.109 370.738 523.109H444.344C445.413 523.109 446.248 524.498 446.248 526.227Z" fill="black"/>
<path d="M287.639 494.763C272.902 492.85 260.644 506.08 263.565 520.725C265.99 532.855 270.764 547.604 280.049 561.751C301.463 594.368 303.419 589.731 303.419 589.731C303.419 589.731 320.112 594.315 345.699 570.711C362.679 555.045 360.696 538.671 359.914 534.086C359.757 533.222 359.34 532.462 358.714 531.885C354.332 527.903 334.822 510.744 315.026 501.889C306.445 498.064 296.559 495.916 287.639 494.763Z" fill="#FBBE74"/>
<path d="M307.722 592.377C302.818 592.377 298.097 589.993 295.202 585.827C287.065 574.195 272.876 553.473 269.12 545.273C268.676 544.303 269.12 543.177 270.059 542.731C270.998 542.286 272.145 542.731 272.589 543.675C276.214 551.586 290.273 572.099 298.332 583.627C301.149 587.661 306.235 589.469 310.93 588.08C325.954 583.705 339.36 575.61 349.767 564.659L351.15 563.192C361.504 551.848 363.956 542.443 358.427 535.265C344.003 516.507 314.582 503.801 314.295 503.67C313.33 503.251 312.86 502.124 313.278 501.155C313.695 500.186 314.816 499.74 315.781 500.133C317.033 500.657 346.429 513.363 361.452 532.907C366.147 539.011 368.651 549.674 353.966 565.786L352.532 567.331C341.682 578.754 327.675 587.216 312 591.774C310.591 592.193 309.157 592.377 307.722 592.377Z" fill="black"/>
<path d="M558.245 645.113C546.664 645.113 538.553 639.533 538.422 639.455C537.562 638.852 537.353 637.647 537.953 636.782C538.553 635.918 539.753 635.708 540.613 636.311C541.187 636.704 552.611 644.511 567.557 639.926C559.575 635.525 553.602 627.77 552.455 619.832C551.542 613.492 553.863 607.86 559.028 603.983C565.992 598.769 573.712 597.564 580.259 600.655C586.545 603.616 590.822 610.244 591.161 617.527C591.579 626.094 586.701 634.11 577.781 639.481C584.797 640.607 591.735 638.381 597.708 633.062C609.993 622.138 602.82 606.183 602.507 605.502C602.064 604.533 602.481 603.406 603.42 602.961C604.385 602.515 605.507 602.935 605.95 603.878C606.028 604.061 614.688 623.081 600.238 635.918C592.074 643.175 582.293 645.349 572.591 642.127C567.478 644.301 562.601 645.087 558.245 645.087V645.113ZM572.669 602.777C568.965 602.777 565.079 604.218 561.297 607.048C556.185 610.873 555.715 615.798 556.211 619.256C557.332 626.88 564.088 634.66 572.46 637.988C573.556 637.464 574.651 636.887 575.773 636.206C583.493 631.595 587.718 624.836 587.353 617.684C587.066 611.816 583.65 606.471 578.616 604.087C576.738 603.197 574.729 602.751 572.669 602.751V602.777Z" fill="black"/>
<path d="M469.356 420.282L442.908 523.109L441.291 529.344H391.708L384.17 526.724L385.135 523.109L417.295 402.048L469.356 420.282Z" fill="#43A048"/>
<g opacity="0.4">
<path d="M410.462 483.681C423.19 505.216 454.959 484.546 441.292 464.216C428.511 445.196 398.881 464.085 410.462 483.681Z" fill="white"/>
</g>
<path d="M235.96 36.5769V27.3235L223.237 30.7936C223.623 33.1069 225.319 37.5022 229.02 36.5769C232.722 35.6516 235.189 36.1913 235.96 36.5769Z" fill="black"/>
</g>
<defs>
<clipPath id="clip0_582_12415">
<rect width="647.735" height="811.982" fill="white" transform="translate(0 0.720215)"/>
</clipPath>
</defs>
</svg>
