<svg width="358" height="300" viewBox="0 0 358 300" fill="none" xmlns="http://www.w3.org/2000/svg">
<path d="M276.419 274.469L275.68 299.703H222.926C222.788 296.261 225.109 293.14 228.119 291.398C231.129 289.657 234.634 289.015 238.042 288.293C241.449 287.571 244.946 286.673 247.697 284.554C250.674 282.26 252.516 278.585 252.549 274.854" fill="black"/>
<path d="M345.213 259.079L358 281.305L307.85 299.703C306.511 296.518 307.582 292.803 309.797 290.131C312.004 287.467 315.071 285.654 318.008 283.8C320.945 281.947 323.915 279.909 325.749 276.972C327.736 273.803 328.166 269.719 326.885 266.212" fill="black"/>
<path d="M270.406 67.2499L279.923 74.9285L294.309 68.8707L291.177 38.79L280.086 44.7998L274.236 47.9691L273.684 56.2655L273.36 61.2322L270.406 67.2499Z" fill="#FFB78F"/>
<path d="M280.086 44.7997L274.236 47.9691L273.684 56.2575C278.131 54.8133 281.993 51.5797 283.972 47.3753C282.642 46.5088 281.384 45.6583 280.086 44.7997Z" fill="black"/>
<path d="M269.1 48.5949C277.311 56.5223 286.106 48.4425 286.106 48.4425L292.564 33.9438L292.832 33.334L293.156 32.6038L293.53 31.7533C293.53 31.7533 293.53 31.7132 293.53 31.6249V31.5768C293.53 31.4965 293.53 31.3842 293.53 31.2478C293.53 31.0633 293.53 30.8306 293.522 30.5658C293.522 30.4053 293.505 30.2288 293.497 30.0362C293.359 27.6051 292.735 23.0396 290.049 19.3407C287.891 16.364 284.41 13.9569 278.796 13.66C275.477 13.4915 272.735 14.9117 270.593 17.2867C270.406 17.4953 270.22 17.7199 270.033 17.9446C269.903 18.1051 269.781 18.2656 269.652 18.4341C269.619 18.4742 269.587 18.5223 269.554 18.5705C269.002 19.3407 268.499 20.1672 268.045 21.0578C268.029 21.0738 268.029 21.0899 268.013 21.114C267.94 21.2423 267.883 21.3787 267.818 21.5071C267.485 22.1891 267.185 22.9112 266.909 23.6494C263.696 32.2668 264.353 44.0134 269.075 48.5789L269.1 48.5949Z" fill="#FFB78F"/>
<path d="M273.692 39.809C273.157 39.785 272.646 39.5282 272.305 39.119C271.964 38.7098 271.802 38.1722 271.875 37.6427L272.743 31.1917L273.749 31.32L272.881 37.771C272.848 38.0278 272.922 38.2765 273.084 38.4691C273.246 38.6697 273.481 38.782 273.741 38.7981L273.684 39.801L273.692 39.809Z" fill="black"/>
<path d="M278.106 32.1384C278.082 32.6279 278.35 33.0451 278.698 33.0612C279.047 33.0772 279.364 32.6921 279.388 32.2026C279.412 31.7132 279.145 31.296 278.796 31.2799C278.439 31.2639 278.13 31.649 278.106 32.1384Z" fill="black"/>
<path d="M268.329 31.6249C268.305 32.1144 268.573 32.5316 268.922 32.5477C269.27 32.5637 269.587 32.1786 269.611 31.6891C269.636 31.1997 269.368 30.7825 269.019 30.7664C268.67 30.7504 268.354 31.1355 268.329 31.6249Z" fill="black"/>
<path d="M280.621 27.8057C280.889 27.91 281.157 28.0303 281.352 28.2309C281.546 28.4315 281.668 28.7204 281.603 28.9852C281.489 29.4265 280.946 29.603 280.475 29.6511C279.469 29.7554 278.423 29.595 277.506 29.1777C277.181 29.0333 276.832 28.8167 276.767 28.4716C276.613 27.6853 277.692 27.4446 278.122 27.4125C278.958 27.3483 279.851 27.5008 280.629 27.7977L280.621 27.8057Z" fill="black"/>
<path d="M270.285 27.0515C270.528 27.0997 270.78 27.1719 270.982 27.3163C271.185 27.4607 271.331 27.6934 271.307 27.9341C271.275 28.3273 270.828 28.568 270.431 28.6723C269.571 28.913 268.646 28.921 267.786 28.6964C267.477 28.6161 267.153 28.4797 267.039 28.1989C266.788 27.541 267.688 27.1799 268.053 27.0836C268.767 26.9071 269.563 26.9071 270.277 27.0515H270.285Z" fill="black"/>
<path d="M274.974 40.2424C275.023 41.2854 275.915 42.0878 276.962 42.0396C278.017 41.9915 278.828 41.1089 278.779 40.0739" fill="white"/>
<path d="M289.732 31.0312C290.39 30.0925 291.631 29.6431 292.783 29.7795C293.935 29.9159 294.974 30.5899 295.712 31.4725C297.392 33.4865 297.416 36.6799 295.753 38.7179C294.097 40.7559 290.941 41.4218 288.588 40.2343" fill="#FFB78F"/>
<path d="M292.873 37.4742L291.956 37.0409C292.548 35.8213 292.597 34.3369 292.077 33.0852L292.743 32.4353L295.112 33.4302L294.714 34.353L293.335 33.7753C293.578 35.0189 293.424 36.3428 292.864 37.4822L292.873 37.4742Z" fill="black"/>
<path d="M221.498 75.3858L209.084 84.3723C209.084 84.3723 201.312 69.6168 202.366 67.7794C202.999 66.6801 203.884 67.1616 203.884 67.1616C203.884 67.1616 202.918 65.7655 203.413 64.8748C203.908 63.9922 204.93 64.257 204.93 64.257C204.93 64.257 204.273 62.9251 205.555 62.4356C206.959 61.8981 210.804 64.9791 214.366 68.2688" fill="#FFB78F"/>
<path d="M209.823 69.2317C207.348 66.3271 204.679 64.7144 204.654 64.6983L205.182 63.8398C205.295 63.912 208.013 65.5649 210.602 68.5818L209.831 69.2317H209.823Z" fill="black"/>
<path d="M207.486 71.5586C205.79 69.5045 203.567 67.5628 203.543 67.5387L204.216 66.7845C204.313 66.8647 206.528 68.7984 208.273 70.9247L207.486 71.5586Z" fill="black"/>
<path d="M213.977 75.7629C213.255 73.9175 213.66 71.6869 214.983 70.2106L215.745 70.8765C214.666 72.0801 214.342 73.9014 214.926 75.4019L213.977 75.7629Z" fill="black"/>
<path d="M188.094 68.3651L197.214 80.7938L228.889 57.4369L219.526 42.8901L188.094 68.3651Z" fill="#43A048"/>
<g opacity="0.4">
<path d="M214.48 62.7647C215.437 55.1663 203.892 54.0751 203.388 61.5691C202.918 68.5738 213.612 69.681 214.48 62.7647Z" fill="white"/>
</g>
<path d="M214.35 68.2689C213.725 65.9661 214.082 62.516 216.281 62.7807C218.577 63.0535 217.79 65.8297 218.536 68.3652C219.283 70.9007 221.49 75.3859 221.49 75.3859" fill="#FFB78F"/>
<path d="M242.074 278.416H284.767L289.262 205.433L291.461 169.68L291.64 166.791L262.934 128.206L242.074 278.416Z" fill="#2A2A2A"/>
<path d="M281.822 155.831C281.822 155.831 283.696 186.152 289.262 205.433L291.461 169.688L281.822 155.831Z" fill="#2A2A2A"/>
<path d="M315.209 272.679C315.209 272.679 297.765 225.637 294.106 211.531C289.197 192.603 281.579 154.178 281.579 154.178L262.926 128.214L288.078 126.28L307.096 124.82C310.836 128.815 315.023 136.061 318.292 144.502C322.52 155.438 330.666 205.465 330.666 205.465L353.732 260.066L315.209 272.687V272.679Z" fill="#2A2A2A"/>
<path d="M325.749 101.511C325.749 101.511 325.035 108.098 318.796 115.376C318.552 115.657 318.301 115.945 318.041 116.226C315.396 119.139 311.842 122.116 307.096 124.804C300.207 128.695 291.745 130.011 284.078 130.187C283.323 130.203 282.569 130.211 281.83 130.211C271.38 130.171 262.934 128.198 262.934 128.198V114.605C262.853 114.758 261.766 116.619 259.534 118.834C255.721 122.629 250.147 126.497 239.007 125.453C220.849 123.752 205.271 84.7495 205.271 84.7495L223.299 72.3048L241.344 91.5455C241.384 91.4573 242.058 90.0932 243.129 88.0312C246.317 81.8449 252.987 69.4003 256.427 66.4797C259.859 63.5671 273.457 61.3846 273.457 61.3846C278.853 78.3707 293.481 61.6254 293.481 61.6254L325.757 101.487L325.749 101.511Z" fill="#43A048"/>
<path d="M318.804 115.384C318.56 115.665 318.309 115.953 318.049 116.234C315.404 119.147 311.85 122.124 307.104 124.812C300.216 128.703 291.753 130.019 284.086 130.195L288.086 126.272L307.218 107.513L306.609 97.6274L318.804 115.376V115.384Z" fill="#CCCCCC"/>
<path d="M318.292 144.494L300.588 154.106L284.077 130.203C291.745 130.019 300.215 128.703 307.096 124.812C310.836 128.807 314.706 136.173 318.292 144.494Z" fill="#2A2A2A"/>
<path d="M346.252 262.57L320.613 206.637L320.572 206.492C317.651 183.866 312.597 163.959 308.872 151.249C304.637 136.775 301.197 128.27 301.002 127.909L301.887 127.419C302.203 127.973 305.733 136.943 309.814 150.848C313.554 163.606 318.625 183.577 321.57 206.284L347.185 262.152L346.26 262.57H346.252Z" fill="#2A2A2A"/>
<path d="M318.804 115.384C318.56 115.665 318.309 115.953 318.049 116.234C315.404 119.147 311.85 122.124 307.104 124.812C300.216 128.703 291.753 130.019 284.086 130.195L288.086 126.272L307.218 107.513L306.609 97.6274L318.804 115.376V115.384Z" fill="#2C712F"/>
<path d="M285.781 140.161C283.445 142.103 281.424 142.271 280.589 140.931C279.899 139.832 283.615 137.096 287.112 135.234C289.465 133.991 291.948 132.201 291.948 132.201L302.625 143.154C302.625 143.154 288.889 152.766 286.909 151.972C285.724 151.498 286.09 150.567 286.09 150.567C286.09 150.567 284.816 151.707 283.866 151.338C282.909 150.969 283.047 149.934 283.047 149.934C283.047 149.934 281.806 150.76 281.132 149.565C280.402 148.265 282.974 144.084 285.789 140.145L285.781 140.161Z" fill="#FFB78F"/>
<path d="M283.501 150.142L282.568 149.741C282.625 149.621 283.915 146.732 286.593 143.795L287.347 144.469C284.775 147.286 283.51 150.118 283.501 150.15V150.142Z" fill="black"/>
<path d="M286.503 150.848L285.659 150.295C285.724 150.19 287.371 147.759 289.254 145.761L289.992 146.443C288.158 148.377 286.519 150.824 286.495 150.848H286.503Z" fill="black"/>
<path d="M306.609 97.6275L310.779 109.029L287.469 130.139L301.214 150.038C301.214 150.038 336.175 131.527 338.382 113.811C340.589 96.095 321.692 69.4003 314.333 65.0354C308.67 61.6735 293.473 61.6414 293.473 61.6414" fill="#43A048"/>
<path d="M247.226 98.3576L241.335 91.5615C241.376 91.4733 242.049 90.1093 243.12 88.0472L247.226 98.3576Z" fill="#2C712F"/>
<path d="M259.526 118.85C261.749 116.635 262.844 114.774 262.925 114.63V96.4239L259.526 118.85Z" fill="#2C712F"/>
<path d="M344.385 280.823C341.87 280.823 339.826 278.801 339.826 276.314C339.826 273.827 341.87 271.805 344.385 271.805C346.901 271.805 348.945 273.827 348.945 276.314C348.945 278.801 346.901 280.823 344.385 280.823ZM344.385 272.816C342.43 272.816 340.84 274.388 340.84 276.322C340.84 278.256 342.43 279.828 344.385 279.828C346.341 279.828 347.931 278.256 347.931 276.322C347.931 274.388 346.341 272.816 344.385 272.816Z" fill="white"/>
<path d="M266.844 295.378C264.329 295.378 262.284 293.356 262.284 290.869C262.284 288.381 264.329 286.36 266.844 286.36C269.359 286.36 271.404 288.381 271.404 290.869C271.404 293.356 269.359 295.378 266.844 295.378ZM266.844 287.371C264.889 287.371 263.299 288.943 263.299 290.877C263.299 292.811 264.889 294.383 266.844 294.383C268.8 294.383 270.39 292.811 270.39 290.877C270.39 288.943 268.8 287.371 266.844 287.371Z" fill="white"/>
<path d="M293.761 124.494L292.964 125.114L309.122 145.426L309.919 144.806L293.761 124.494Z" fill="black"/>
<path d="M227.608 76.9041L208.777 92.8313L209.436 93.5935L228.267 77.6663L227.608 76.9041Z" fill="black"/>
<path d="M325.196 230.732C322.364 230.732 320.052 228.453 320.052 225.645C320.052 222.836 322.356 220.558 325.196 220.558C328.035 220.558 330.34 222.836 330.34 225.645C330.34 228.453 328.035 230.732 325.196 230.732ZM325.196 221.753C323.029 221.753 321.261 223.494 321.261 225.645C321.261 227.795 323.021 229.536 325.196 229.536C327.37 229.536 329.131 227.795 329.131 225.645C329.131 223.494 327.37 221.753 325.196 221.753Z" fill="black"/>
<path d="M322.989 215.086C321.439 215.086 320.173 213.842 320.173 212.301C320.173 210.761 321.431 209.525 322.989 209.525C324.547 209.525 325.796 210.769 325.796 212.301C325.796 213.834 324.538 215.086 322.989 215.086ZM322.989 210.721C322.104 210.721 321.39 211.427 321.39 212.301C321.39 213.176 322.112 213.882 322.989 213.882C323.865 213.882 324.587 213.176 324.587 212.301C324.587 211.427 323.873 210.721 322.989 210.721Z" fill="black"/>
<path d="M288.031 15.9727C292.141 20.9528 291.811 21.6492 292.974 26.0137L290.715 27.293L288.031 24.2453H285.794V21.6329C285.495 21.0523 284.451 19.8913 282.662 19.8913C280.425 19.8913 276.398 19.4559 273.266 19.8913C270.76 20.2396 267.876 23.8635 266.533 24.7343C267.833 20.871 269.239 16.4081 272.371 14.6665C275.503 12.9249 283.921 10.9926 288.031 15.9727Z" fill="black"/>
<path d="M293.4 29.8518C293.826 29.8518 293.273 27.6903 292.974 26.0137H290.415C289.988 26.0137 290.415 27.7196 290.841 27.2931C291.268 26.8666 292.974 29.8518 293.4 29.8518Z" fill="#D3B9AA"/>
<g clip-path="url(#clip0_690_9357)">
<path d="M109.358 102.395L103.829 144.441V144.46L98.0204 143.977L66.2669 141.331L40.7161 139.206L45.9282 119.752L52.9289 93.6344L109.358 102.395Z" fill="#43A048"/>
<path d="M159.219 135.361L150.17 151.84C150.17 151.84 169.394 158.949 171.471 157.374C172.711 156.428 171.99 155.442 171.99 155.442C171.99 155.442 173.846 156.399 174.856 155.655C175.856 154.911 175.375 153.723 175.375 153.723C175.375 153.723 177.096 154.312 177.51 152.68C177.952 150.893 173.596 146.72 169.018 142.915" fill="#B0614E"/>
<path d="M174.904 154.1C174.904 154.1 172.481 151.086 168.557 148.536L169.211 147.522C173.298 150.178 175.741 153.211 175.846 153.346L174.904 154.1Z" fill="black"/>
<path d="M171.596 155.896C171.596 155.896 168.845 153.472 166.076 151.743L166.711 150.719C169.567 152.506 172.279 154.892 172.394 154.988L171.596 155.896Z" fill="black"/>
<path d="M161.45 144.711C160.941 144.711 160.431 144.653 159.931 144.528L160.219 143.359C162.152 143.832 164.326 143.146 165.633 141.649L166.537 142.441C165.278 143.89 163.364 144.711 161.45 144.711Z" fill="black"/>
<path d="M169.019 142.905C171.923 143.301 176.077 142.325 175.423 139.698C174.731 136.955 171.471 138.346 168.259 137.844C165.047 137.341 159.229 135.361 159.229 135.361" fill="#B0614E"/>
<path d="M99.8474 64.7926L87.7403 72.9158L71.4597 64.0102L78.6047 28.3202L91.0003 36.7911L97.5395 41.2536L97.2318 51.2507L97.0491 57.2393L99.8474 64.7926Z" fill="#B0614E"/>
<path d="M91.0003 36.7912L97.5394 41.2633L97.2317 51.2604C92.1542 49.0292 87.9615 44.7116 86.1151 39.4474C87.7884 38.5588 89.3655 37.6798 91.0003 36.8009V36.7912Z" fill="black"/>
<path d="M102.405 43.707C91.029 51.1928 82.6627 39.6309 82.6627 39.6309L78.4988 21.0277L78.3257 20.2453L78.1237 19.3084L77.8833 18.2266C77.8833 18.2266 77.8833 18.1783 77.9025 18.072V18.0141C77.9314 17.9175 77.9506 17.7919 77.9891 17.6277C77.9987 17.5601 78.0179 17.4925 78.0275 17.4249C78.066 17.251 78.1045 17.0482 78.1526 16.826C78.2006 16.6328 78.2487 16.43 78.3064 16.2078C79.018 13.3681 80.8067 8.1136 84.7783 4.36591C87.971 1.34264 92.5772 -0.705071 99.1741 0.231853C102.549 0.714803 105.146 2.51138 107.04 5.11931C107.338 5.52499 107.617 5.94998 107.877 6.3943C108.05 6.69373 108.214 6.9835 108.367 7.29259C108.483 7.51474 108.589 7.7369 108.694 7.95906C108.723 8.01701 108.752 8.07497 108.771 8.14258C109.243 9.17609 109.637 10.2772 109.954 11.4363C109.964 11.4653 109.973 11.4749 109.973 11.5039C110.021 11.6778 110.07 11.842 110.108 12.0158C110.339 12.9045 110.521 13.8221 110.666 14.759C112.416 25.6737 108.935 39.3991 102.396 43.707H102.405Z" fill="#B0614E"/>
<path d="M99.4147 32.2997C99.309 32.2997 99.2032 32.2997 99.0974 32.2804L99.2705 31.0827C99.5782 31.1213 99.8763 31.044 100.117 30.8509C100.357 30.6577 100.501 30.3776 100.521 30.0685L101.001 22.2447L102.204 22.322L101.723 30.1458C101.684 30.7832 101.377 31.3821 100.886 31.7878C100.473 32.1259 99.9629 32.3094 99.434 32.3094L99.4147 32.2997Z" fill="black"/>
<path d="M95.7316 22.2061C95.6451 22.7953 95.2412 23.2203 94.8277 23.1623C94.4142 23.1044 94.1353 22.5828 94.2218 21.9936C94.3084 21.4044 94.7123 20.9794 95.1258 21.0373C95.5393 21.0953 95.8182 21.6169 95.7316 22.2061Z" fill="black"/>
<path d="M107.223 23.8384C107.137 24.4276 106.733 24.8526 106.319 24.7946C105.906 24.7367 105.627 24.2151 105.714 23.6259C105.8 23.0367 106.204 22.6117 106.617 22.6697C107.031 22.7276 107.31 23.2492 107.223 23.8384Z" fill="black"/>
<path d="M93.8087 16.5072C93.4721 16.5652 93.1355 16.6521 92.8567 16.8453C92.5778 17.0385 92.3758 17.3476 92.3951 17.676C92.4239 18.2169 93.0201 18.555 93.5587 18.7192C94.703 19.0765 95.9531 19.1152 97.1264 18.8447C97.5399 18.7481 97.9918 18.5646 98.1457 18.1879C98.5111 17.2896 97.3091 16.768 96.8186 16.6328C95.857 16.3624 94.7896 16.343 93.8183 16.5169L93.8087 16.5072Z" fill="black"/>
<path d="M106.002 17.985C105.704 17.985 105.396 18.014 105.127 18.1299C104.858 18.2554 104.637 18.4969 104.608 18.7867C104.56 19.26 105.021 19.6367 105.454 19.8685C106.396 20.3514 107.473 20.5736 108.522 20.506C108.897 20.4867 109.31 20.3997 109.502 20.081C109.945 19.3566 108.983 18.7287 108.579 18.5355C107.791 18.1588 106.868 17.985 106.002 17.985Z" fill="black"/>
<path d="M97.5012 32.4929C97.2031 33.7099 95.9818 34.4536 94.7701 34.1639C93.5585 33.8644 92.818 32.6378 93.1065 31.4207" fill="white"/>
<path d="M107.041 5.11932C103.713 5.07103 100.357 4.17274 97.7705 2.36651C97.03 3.97956 95.703 5.32216 94.1066 6.06591C92.5007 6.81931 90.0004 6.7034 88.2983 6.22045C87.5675 11.5909 83.2881 16.2851 78.028 17.4732C78.028 17.4539 78.028 17.4346 78.028 17.4152C78.0664 17.2414 78.1049 17.0385 78.153 16.8164C78.201 16.6232 78.2491 16.4204 78.3068 16.1982C79.0184 13.3585 80.8071 8.10396 84.7787 4.35626C87.9714 1.33299 92.5776 -0.714715 99.1745 0.222209C102.55 0.705159 105.146 2.50173 107.041 5.10967V5.11932Z" fill="black"/>
<path d="M109.172 8.95554C109.599 8.10263 107.1 4.55006 105.761 3.41163L100.217 1.27936L96.3788 2.13227L89.1291 4.26454L85.7175 7.24972C85.5753 8.24478 85.7175 10.1496 87.4233 9.80845C89.5555 9.382 93.8201 8.10263 98.0846 7.24972C101.496 6.5674 108.746 9.80845 109.172 8.95554Z" fill="black"/>
<path d="M82.461 18.2362C81.9129 16.9709 80.5666 16.1595 79.201 16.0533C77.8355 15.9567 76.47 16.5072 75.4121 17.3765C72.9888 19.3759 72.2291 23.143 73.6908 25.9248C75.1429 28.7162 78.6625 30.223 81.6725 29.3537" fill="#B0614E"/>
<path d="M77.3257 25.123C76.941 23.6548 77.0661 22.0514 77.6334 20.6412L75.8928 21.0083L75.6428 19.8299L78.6335 19.1924L79.2586 20.1196C78.3643 21.4816 78.0758 23.2395 78.4893 24.8236L77.3257 25.1327V25.123Z" fill="black"/>
<path d="M163.739 132.193L151.526 157.316C151.526 157.316 127.639 151.53 109.32 136.462C107.954 135.342 106.627 134.173 105.339 132.946C103.358 131.073 101.482 129.064 99.7514 126.939H40.7161L72.9696 56.4568C72.9696 56.4568 89.5772 69.68 97.0492 57.2488C97.0492 57.2488 117.321 62.2136 120.696 67.0527C124.764 72.8964 129.13 100.357 129.13 100.357L163.739 132.203V132.193Z" fill="#43A048"/>
<path d="M24.7239 208.731L0 214.864L14.0592 253.423H37.908C37.0906 249.936 35.9559 247.908 33.1671 245.657C31.6381 244.431 29.9071 243.484 28.3877 242.238C26.8683 241.002 25.5316 239.36 25.2528 237.418C24.9643 235.448 25.8201 233.458 27.0895 231.932C28.3589 230.415 30.0321 229.285 31.6765 228.175" fill="black"/>
<path d="M176.817 230.348C173.432 240.625 164.576 246.034 153.373 248.439C152.199 248.69 151.007 248.913 149.786 249.096C123.985 253.066 88.3174 243.233 76.7584 239.727C76.5276 239.659 76.3064 239.592 76.0949 239.524C74.1043 238.906 72.9888 238.529 72.9888 238.529L60.1893 205.814C60.1893 205.814 54.4963 204.916 47.7456 201.149C45.4857 199.883 43.1105 198.299 40.7833 196.319C32.8497 189.558 25.5701 178.18 25.8778 159.238C25.9355 156.003 26.2048 152.535 26.7433 148.845L66.2669 141.331L91.3081 136.569C91.3081 136.569 94.1449 138.23 98.78 141.186C100.28 142.142 101.973 143.233 103.829 144.441C129.735 161.402 186.097 202.163 176.817 230.348Z" fill="#2A2A2A"/>
<path d="M28.9233 215.191L2.4613 221.449L2.73682 222.624L29.1988 216.366L28.9233 215.191Z" fill="white"/>
<path d="M76.0947 239.514C76.3063 239.582 76.5275 239.65 76.7583 239.717C88.3076 243.233 123.975 253.056 149.785 249.086C154.719 245.822 158.209 239.679 159.075 236.182C167.797 200.83 99.1646 164.029 99.1646 164.029L107.887 218.95L76.0947 239.514Z" fill="#2A2A2A"/>
<path d="M99.1645 164.039C99.1645 164.039 162.97 205.795 154.719 232.106C148.026 253.433 115.166 253.433 115.166 253.433H40.7158L18.0306 204.645L93.3466 202.308" fill="#2A2A2A"/>
<path d="M163.38 213.834L138.517 253.125L139.531 253.773L164.395 214.481L163.38 213.834Z" fill="white"/>
<path d="M40.7931 196.319C43.0433 198.502 48.8613 202.008 52.6405 203.467L90.4812 202.221L40.7931 196.31V196.319Z" fill="#2A2A2A"/>
<path d="M98.7897 141.186L98.0204 143.977L90.4522 171.631C90.4522 171.631 48.2649 174.403 25.8875 159.238C25.9451 156.003 26.2144 152.535 26.7529 148.845L66.2765 141.331L91.3177 136.569C91.3177 136.569 94.1546 138.23 98.7897 141.186Z" fill="#2A2A2A"/>
<path d="M99.7609 137.158L98.7896 141.186C94.1449 138.24 91.3177 136.569 91.3177 136.569L66.2765 141.331L40.7256 139.206L45.9377 119.752L62.5357 105.312L63.9878 115.541L99.7609 137.158Z" fill="#2C712F"/>
<path d="M139.602 253.568L138.429 253.539L123.312 176.711L124.485 176.48L139.083 250.632L158.652 170.172L159.816 170.462L139.602 253.568Z" fill="black"/>
<path d="M105.041 150.391C108.608 151.405 110.936 150.584 111.195 148.652C111.407 147.068 105.897 145.841 101.079 145.503C97.8381 145.281 94.1742 144.499 94.1742 144.499" fill="#B0614E"/>
<path d="M118.763 195.025L136.64 190.669L125.004 145.107L104.656 148.768L118.763 195.025Z" fill="#43A048"/>
<g opacity="0.4">
<path d="M124.428 163.411C116.436 158.881 110.022 171.1 118.11 175.079C125.668 178.798 131.698 167.536 124.428 163.411Z" fill="white"/>
</g>
<path d="M94.1741 144.508L87.8561 162.223C87.8561 162.223 107.964 166.174 109.762 164.28C110.839 163.15 109.964 162.291 109.964 162.291C109.964 162.291 111.955 162.938 112.82 162.049C113.695 161.161 113.022 160.059 113.022 160.059C113.022 160.059 114.821 160.369 114.965 158.688C115.119 156.853 110.157 153.424 105.041 150.4" fill="#B0614E"/>
<path d="M112.628 160.494C112.628 160.494 109.753 157.905 105.483 156.022L105.964 154.921C110.426 156.891 113.311 159.499 113.436 159.605L112.628 160.504V160.494Z" fill="black"/>
<path d="M109.647 162.803C109.647 162.803 106.55 160.851 103.54 159.586L104.002 158.475C107.108 159.779 110.156 161.701 110.281 161.788L109.637 162.812L109.647 162.803Z" fill="black"/>
<path d="M62.5262 105.322L61.3626 117.299L95.5779 139.186L87.8271 167.255C87.8271 167.255 22.3872 173.978 18.0214 133.661C13.4632 91.5479 43.9088 62.3777 49.1402 60.0499C52.1116 58.7266 72.9601 56.4664 72.9601 56.4664" fill="#43A048"/>
<path d="M109.32 136.462C107.954 135.342 106.627 134.173 105.338 132.947L108.964 105.322L109.32 136.462Z" fill="#2C712F"/>
<mask id="mask0_690_9357" style="mask-type:luminance" maskUnits="userSpaceOnUse" x="17" y="56" width="147" height="112">
<path d="M129.129 100.357C129.129 100.357 124.764 72.8964 120.696 67.0527C117.32 62.2039 97.049 57.2488 97.049 57.2488C89.5771 69.68 72.9695 56.4568 72.9695 56.4568C72.9695 56.4568 52.121 58.717 49.1496 60.0403C43.9182 62.3778 13.4726 91.5479 18.0308 133.652C22.3966 173.968 87.8365 167.246 87.8365 167.246L95.5873 139.176L76.441 126.929H99.7609C101.492 129.064 103.367 131.063 105.348 132.937C106.637 134.163 107.964 135.332 109.329 136.453C127.649 151.521 151.536 157.306 151.536 157.306L163.749 132.183L129.139 100.338L129.129 100.357Z" fill="white"/>
</mask>
<g mask="url(#mask0_690_9357)">
<path d="M87.8369 70.1629C85.202 70.1629 82.4421 69.4965 79.8649 68.1732C74.7201 65.517 70.787 60.8517 67.6232 56.6403L68.5848 55.9159C71.6717 60.021 75.4894 64.5607 80.4226 67.101C85.5097 69.7283 91.2892 69.5641 95.1454 66.6954C97.2033 65.1596 98.9151 62.8124 100.223 59.7216C101.406 56.9301 102.117 53.8875 102.81 50.9512L103.983 51.2313C103.281 54.2256 102.55 57.3165 101.329 60.1948C99.9344 63.4886 98.0977 65.9999 95.8667 67.6709C93.626 69.3323 90.818 70.1726 87.8465 70.1726L87.8369 70.1629Z" fill="black"/>
</g>
<path d="M36.1962 159.219L35.0614 158.833C37.8983 150.478 37.6771 144.112 34.3979 139.92C29.2627 133.362 18.1942 134.289 18.0788 134.299L17.973 133.101C18.0884 133.091 20.9541 132.84 24.5218 133.439C29.2916 134.251 33.042 136.231 35.3403 139.167C38.8984 143.707 39.1869 150.449 36.2058 159.219H36.1962Z" fill="white"/>
<path d="M35.2984 203.9L34.1835 204.352L53.9645 253.652L55.0795 253.201L35.2984 203.9Z" fill="black"/>
<path d="M222.082 198.695C217.053 198.695 212.966 194.59 212.966 189.539C212.966 184.487 217.053 180.382 222.082 180.382C227.112 180.382 231.199 184.487 231.199 189.539C231.199 194.59 227.112 198.695 222.082 198.695ZM222.082 181.811C217.832 181.811 214.379 185.279 214.379 189.548C214.379 193.818 217.832 197.285 222.082 197.285C226.333 197.285 229.785 193.818 229.785 189.548C229.785 185.279 226.333 181.811 222.082 181.811Z" fill="black"/>
<path d="M233.824 178.131C231.074 178.131 228.833 175.881 228.833 173.118C228.833 170.356 231.074 168.105 233.824 168.105C236.574 168.105 238.815 170.356 238.815 173.118C238.815 175.881 236.574 178.131 233.824 178.131ZM233.824 169.525C231.853 169.525 230.247 171.138 230.247 173.118C230.247 175.098 231.853 176.711 233.824 176.711C235.795 176.711 237.401 175.098 237.401 173.118C237.401 171.138 235.795 169.525 233.824 169.525Z" fill="black"/>
<path d="M95.3663 218.216C95.3663 218.216 77.4797 197.285 85.3363 189.77C93.193 182.256 111.464 198.425 111.464 198.425L95.3759 218.216H95.3663Z" fill="#FB8A00"/>
<path d="M192.8 277.87C181.462 287.017 151.949 292.04 122.84 288.012C93.7313 283.984 86.2977 273.987 86.2977 272.944C86.2977 271.901 93.135 267.274 92.5388 265.932C92.0195 264.753 80.0182 265.12 76.3255 265.236C76.0659 265.236 75.8158 265.149 75.6331 264.995C75.4023 264.811 75.2581 264.531 75.2485 264.212C75.1811 261.933 75.3158 257.982 75.3158 257.982C75.3158 257.982 75.3639 252.313 75.2773 248.642C75.2773 248.275 75.3735 247.927 75.5562 247.628C75.7581 247.309 76.0659 247.048 76.4409 246.913C79.9413 245.619 89.4135 242.209 89.4135 242.209C89.4135 242.209 89.1346 238.336 90.1732 223.558C90.4328 219.868 91.5964 216.159 93.1831 212.662C99.2607 199.362 111.32 189.848 125.494 186.457C135.938 183.965 147.776 183.173 161.912 183.27C185.232 183.424 198.3 209.533 199.935 218.207C201.57 226.89 204.138 268.704 192.809 277.851L192.8 277.87Z" fill="#FBBE74"/>
<path d="M75.6331 264.995C75.4023 264.811 75.2581 264.531 75.2485 264.212C75.1811 261.933 75.3158 257.982 75.3158 257.982C75.3158 257.982 75.3639 252.313 75.2773 248.642C75.2773 248.275 75.3735 247.927 75.5562 247.628C77.7872 248.343 82.2492 251.559 82.2492 256.311C82.2492 261.981 78.1334 263.401 75.6331 264.995Z" fill="#FB8A00"/>
<path d="M120.292 283.724V290.321C120.292 295.314 124.321 299.371 129.302 299.371C134.274 299.371 138.313 295.324 138.313 290.321V283.724C138.313 283.724 134.957 280.43 128.774 280.507C122.59 280.584 120.301 283.724 120.301 283.724H120.292Z" fill="#FB8A00"/>
<path d="M149.622 283.724V290.321C149.622 295.314 153.651 299.371 158.633 299.371C163.605 299.371 167.643 295.324 167.643 290.321V283.724C167.643 283.724 164.287 280.43 158.104 280.507C151.921 280.584 149.632 283.724 149.632 283.724H149.622Z" fill="#FB8A00"/>
<path d="M102.675 234.917C102.675 237.37 101.415 239.36 99.8573 239.36C98.2994 239.36 97.0397 237.37 97.0397 234.917C97.0397 232.463 98.2994 230.474 99.8573 230.474C101.415 230.474 102.675 232.463 102.675 234.917Z" fill="black"/>
<path d="M164.528 193.75C164.528 194.378 164.22 194.899 163.826 194.899H136.688C136.304 194.899 135.986 194.378 135.986 193.75C135.986 193.122 136.304 192.601 136.688 192.601H163.826C164.22 192.601 164.528 193.112 164.528 193.75Z" fill="black"/>
<path d="M106.05 182.149C100.617 181.444 96.0971 186.322 97.1742 191.722C98.0685 196.194 99.8283 201.632 103.252 206.848C111.147 218.873 111.868 217.163 111.868 217.163C111.868 217.163 118.023 218.854 127.456 210.151C133.717 204.375 132.986 198.338 132.697 196.648C132.64 196.329 132.486 196.049 132.255 195.836C130.639 194.368 123.446 188.041 116.147 184.777C112.984 183.367 109.339 182.574 106.05 182.149Z" fill="#FBBE74"/>
<path d="M113.455 218.139C111.647 218.139 109.906 217.26 108.839 215.724C105.838 211.436 100.607 203.795 99.2222 200.772C99.0587 200.415 99.2222 199.999 99.5684 199.835C99.9146 199.671 100.338 199.835 100.501 200.183C101.838 203.1 107.021 210.663 109.993 214.913C111.031 216.4 112.906 217.067 114.637 216.555C120.176 214.942 125.119 211.957 128.956 207.92L129.466 207.379C133.284 203.196 134.188 199.729 132.149 197.082C126.831 190.166 115.984 185.482 115.878 185.434C115.522 185.279 115.349 184.864 115.503 184.506C115.657 184.149 116.07 183.985 116.426 184.13C116.888 184.323 127.725 189.007 133.264 196.213C134.995 198.464 135.919 202.395 130.504 208.335L129.976 208.905C125.975 213.116 120.811 216.236 115.032 217.917C114.512 218.071 113.983 218.139 113.455 218.139Z" fill="black"/>
<path d="M205.82 237.583C201.551 237.583 198.56 235.525 198.512 235.496C198.195 235.274 198.118 234.83 198.339 234.511C198.56 234.192 199.002 234.115 199.32 234.337C199.531 234.482 203.743 237.36 209.254 235.67C206.311 234.047 204.109 231.188 203.686 228.262C203.349 225.924 204.205 223.847 206.109 222.418C208.677 220.496 211.523 220.051 213.937 221.191C216.254 222.283 217.831 224.726 217.956 227.412C218.11 230.57 216.312 233.526 213.023 235.506C215.61 235.921 218.168 235.1 220.37 233.139C224.899 229.112 222.255 223.229 222.14 222.978C221.976 222.621 222.13 222.205 222.476 222.041C222.832 221.877 223.245 222.032 223.409 222.379C223.438 222.447 226.63 229.459 221.303 234.192C218.293 236.868 214.687 237.669 211.109 236.481C209.225 237.283 207.426 237.573 205.82 237.573V237.583ZM211.138 221.974C209.773 221.974 208.34 222.505 206.946 223.548C205.061 224.958 204.888 226.774 205.07 228.049C205.484 230.86 207.975 233.729 211.061 234.955C211.465 234.762 211.869 234.55 212.283 234.298C215.129 232.598 216.687 230.106 216.552 227.47C216.447 225.306 215.187 223.335 213.331 222.457C212.638 222.128 211.898 221.964 211.138 221.964V221.974Z" fill="black"/>
<path d="M173.048 154.689L163.297 192.6L162.701 194.899H144.42L141.641 193.933L141.996 192.6L153.853 147.966L173.048 154.689Z" fill="#43A048"/>
<g opacity="0.4">
<path d="M151.334 178.064C156.027 186.003 167.74 178.382 162.701 170.887C157.988 163.875 147.064 170.839 151.334 178.064Z" fill="white"/>
</g>
<path d="M86.9967 13.2201V9.80847L82.3057 11.0878C82.4478 11.9407 83.0733 13.5613 84.4379 13.2201C85.8026 12.8789 86.7124 13.078 86.9967 13.2201Z" fill="black"/>
</g>
<defs>
<clipPath id="clip0_690_9357">
<rect width="238.815" height="299.371" fill="white"/>
</clipPath>
</defs>
</svg>
