<svg width="604" height="879" viewBox="0 0 604 879" fill="none" xmlns="http://www.w3.org/2000/svg">
<g clip-path="url(#clip0_582_12752)">
<path d="M256.523 185.621C243.886 189.17 230.418 190.781 217.654 187.785C204.891 184.79 192.908 176.711 187.37 164.806C181.857 152.901 184.072 137.246 194.117 128.84C205.747 119.125 225.207 119.779 233.011 106.792C238.876 97.0766 235.503 83.1582 243.08 74.7015C247.385 69.8942 254.182 68.233 260.626 67.478C267.071 66.7229 273.717 66.6222 279.608 63.9543C285.498 61.3116 290.483 55.1452 289.249 48.8026C310.068 52.1501 329.654 55.2207 350.473 58.5682C348.534 65.2631 355.608 72.4614 361.7 75.8592C367.792 79.257 374.891 80.4148 381.16 83.4351C387.453 86.4553 393.268 92.4456 392.589 99.3922C391.984 105.483 386.547 110.265 385.792 116.331C385.112 121.793 388.385 127.028 392.287 130.904C396.214 134.78 400.896 137.901 404.345 142.205C412.325 152.197 411.444 168.129 402.432 177.189C393.394 186.25 377.459 187.156 367.44 179.203" fill="#2A2A2A"/>
<path d="M510.202 385.664L480.421 424.625C480.421 424.625 527.446 450.398 533.438 447.151C537.013 445.213 535.527 442.369 535.527 442.369C535.527 442.369 539.983 445.541 542.853 444.03C545.748 442.52 544.942 439.248 544.942 439.248C544.942 439.248 549.172 441.438 550.858 437.386C552.696 432.956 543.029 420.498 532.657 408.92" fill="#B0614E"/>
<path d="M543.558 440.004C543.558 440.004 538.447 431.295 529.284 423.216L531.373 420.85C540.94 429.282 546.075 438.04 546.302 438.418L543.583 440.004H543.558Z" fill="#2A2A2A"/>
<path d="M534.294 443.351C534.294 443.351 528.126 436.052 521.606 430.515L523.645 428.124C530.367 433.837 536.434 441.036 536.711 441.338L534.294 443.376V443.351Z" fill="#2A2A2A"/>
<path d="M536.661 500.157L494.494 476.876L555.113 370.361L604.001 393.542L536.661 500.157Z" fill="#43A048"/>
<g opacity="0.4">
<path d="M544.012 416.773C567.298 410.883 575.127 446.019 551.967 450.449C530.342 454.602 522.815 422.109 544.012 416.773Z" fill="#A9DFAC"/>
</g>
<path d="M514.985 410.808C512.77 410.808 510.554 410.405 508.49 409.549L509.698 406.63C514.507 408.618 520.422 407.687 524.375 404.314L526.414 406.705C523.267 409.373 519.113 410.782 514.985 410.782V410.808Z" fill="#2A2A2A"/>
<path d="M532.632 408.895C540.008 411.034 551.135 410.128 550.455 403.106C549.725 395.756 540.738 398.097 532.607 395.555C524.476 393.013 510.177 385.664 510.177 385.664" fill="#B0614E"/>
<path d="M275.53 146.911L281.345 172.256L345.236 169.689L338.062 149.982L333.682 104.074L290.181 74.2988L275.53 146.911Z" fill="#B0614E"/>
<path d="M308.004 103.344C312.712 116.96 323.461 128.185 336.526 134.125L333.808 105.458L320.843 96.5228C316.538 98.8132 312.41 101.053 308.004 103.344Z" fill="#2A2A2A"/>
<path d="M354.174 113.285C325.098 133.823 302.139 104.501 302.139 104.501L288.394 51.9737L287.664 49.1799C287.664 49.1799 287.664 49.1296 287.664 49.0037C287.689 48.7772 287.765 48.299 287.865 47.5943C287.941 47.0909 288.041 46.4868 288.167 45.8073L288.293 45.0774L288.369 44.6998C289.854 37.4512 293.983 22.9287 304.43 12.4081C312.435 4.35402 324.116 -1.40966 341.159 0.276655C341.335 0.276655 341.536 0.326992 341.712 0.326992C343.701 0.528344 345.614 0.931047 347.427 1.48476C348.107 1.68612 348.812 1.9378 349.466 2.18949C350.297 2.51669 351.102 2.86906 351.883 3.27176C353.595 4.10233 355.181 5.13426 356.691 6.29203C363.337 11.3762 368.019 19.2792 370.965 28.5665C371.242 29.4475 371.518 30.3284 371.745 31.2344C371.946 31.914 372.123 32.6187 372.299 33.3235C372.551 34.3302 372.777 35.3118 373.004 36.3186C373.054 36.5954 373.104 36.8471 373.155 37.0988L373.23 37.5015C373.381 38.3573 373.558 39.2382 373.683 40.1191C378.164 67.8804 370.26 101.858 354.123 113.26L354.174 113.285Z" fill="#B0614E"/>
<path d="M345.111 83.8628C344.91 83.8628 344.683 83.8628 344.482 83.8377L344.809 80.7167C345.615 80.7922 346.395 80.5657 346.999 80.0371C347.603 79.5086 347.956 78.7787 347.981 77.9733L348.535 57.5613L351.681 57.6368L351.128 78.0488C351.077 79.7099 350.347 81.2956 349.089 82.403C347.981 83.3594 346.571 83.888 345.136 83.888L345.111 83.8628Z" fill="#2A2A2A"/>
<path d="M334.764 57.8885C334.588 59.4238 333.581 60.5816 332.473 60.4557C331.366 60.3299 330.611 58.9959 330.787 57.4606C330.938 55.9253 331.97 54.7676 333.078 54.8934C334.185 55.0192 334.94 56.3532 334.764 57.8885Z" fill="#2A2A2A"/>
<path d="M364.973 61.1103C364.797 62.6456 363.79 63.8034 362.682 63.6775C361.575 63.5517 360.819 62.2177 360.995 60.6824C361.147 59.1471 362.179 57.9894 363.286 58.1152C364.394 58.241 365.149 59.575 364.973 61.1103Z" fill="#2A2A2A"/>
<path d="M329.301 44.1465C328.42 44.2724 327.539 44.4486 326.809 44.8261C326.079 45.2036 325.525 45.7825 325.575 46.3614C325.651 47.343 327.212 47.9219 328.621 48.1736C331.642 48.7525 334.915 48.7525 338.011 48.1736C339.094 47.9722 340.277 47.6199 340.705 46.9151C341.662 45.254 338.515 44.3982 337.206 44.1717C334.688 43.7438 331.869 43.7942 329.301 44.1717V44.1465Z" fill="#2A2A2A"/>
<path d="M361.147 46.6885C360.366 46.6885 359.586 46.6885 358.906 46.9402C358.226 47.1667 357.698 47.6197 357.672 48.1734C357.647 49.0795 358.906 49.8346 360.089 50.2625C362.632 51.2189 365.451 51.6971 368.17 51.6216C369.127 51.5964 370.209 51.4454 370.637 50.8665C371.644 49.5074 369.026 48.249 367.943 47.8714C365.804 47.1164 363.387 46.7388 361.147 46.7136V46.6885Z" fill="#2A2A2A"/>
<path d="M371.015 28.5917C368.799 28.0883 366.634 27.3081 364.62 26.251C358.579 23.0797 353.292 17.4167 351.228 10.9231C343.953 32.7194 314.449 48.903 288.192 45.8073L288.318 45.0774L288.394 44.6998C289.879 37.4512 294.007 22.9287 304.455 12.4081C312.46 4.35402 324.141 -1.40966 341.183 0.276655C341.36 0.276655 341.561 0.326992 341.737 0.326992C343.726 0.528344 345.639 0.931047 347.452 1.48476C348.131 1.68612 348.836 1.9378 349.491 2.18949C350.322 2.51669 351.127 2.86906 351.908 3.27176C353.619 4.10233 355.205 5.13426 356.716 6.29203C363.362 11.3762 368.044 19.2792 370.989 28.5665L371.015 28.5917Z" fill="#2A2A2A"/>
<path d="M299.495 49.8598C297.935 46.613 294.36 44.6247 290.76 44.4736C287.16 44.3478 283.661 45.9083 280.967 48.2742C274.825 53.7106 273.163 63.5769 277.242 70.6997C281.32 77.8225 290.659 81.4468 298.463 78.9048" fill="#B0614E"/>
<path d="M288.897 68.0063L285.75 67.9056C285.876 63.9289 287.387 60.0278 289.854 56.932L285.197 56.5544L285.448 53.4083L293.428 54.0627L294.31 56.8313C291.062 59.5747 289.023 63.7528 288.872 68.0063H288.897Z" fill="#2A2A2A"/>
<path d="M525.306 374.791L479.615 441.01C479.615 441.01 444.548 423.996 405.151 396.788C397.271 391.327 389.19 385.487 381.21 379.271C378.013 376.779 374.816 374.237 371.669 371.645C363.185 364.698 354.903 357.349 347.15 349.672H172.794L200.31 295.483L275.58 147.188C275.58 147.188 308.306 172.306 338.011 150.233C338.011 150.233 389.19 168.909 401.198 183.733C414.138 199.715 429.368 285.743 429.368 285.743L525.306 374.816V374.791Z" fill="#43A048"/>
<path d="M400.368 799.668L410.438 879L555.616 839.007C553.099 828.486 544.414 820.734 535.049 817.663C525.684 814.593 515.917 815.172 506.351 815.449C496.784 815.725 486.841 815.549 477.854 811.145C468.111 806.363 460.207 796.572 457.009 785.321" fill="#2A2A2A"/>
<path d="M405.151 396.788C397.271 391.327 389.19 385.487 381.21 379.271L380.757 349.672L370.738 281.917L405.151 396.788Z" fill="#206824"/>
<path d="M74.6913 674.201L0 702.843L73.3822 834.325C82.9987 829.392 88.4615 819.098 89.2419 809.282C90.0223 799.467 87.1021 790.129 84.5595 780.892C82.0169 771.655 79.8268 761.99 81.9666 752.199C84.2826 741.603 91.9103 731.611 102.081 725.822" fill="#2A2A2A"/>
<path d="M297.23 525.502L376.176 823.125L504.739 780.514L380.757 349.672" fill="#414141"/>
<path d="M329.302 477.832L324.77 629.324L310.874 576.897L329.302 477.832Z" fill="#414141"/>
<path d="M380.757 349.672L371.669 371.644L330.056 472.219C330.056 472.219 314.675 590.967 291.641 633.603C268.582 676.239 111.37 765.287 111.37 765.287L46.3958 649.585L184.727 537.684L201.77 427.192L213.727 349.672H380.707H380.757Z" fill="#414141"/>
<path d="M99.17 272.256L49.3752 481.069C46.4506 493.333 54.0237 505.645 66.2901 508.569L340.331 573.892C352.598 576.816 364.913 569.245 367.837 556.981L417.632 348.168C420.556 335.904 412.983 323.592 400.717 320.668L126.676 255.344C114.409 252.42 102.095 259.992 99.17 272.256Z" fill="#FBBE74"/>
<path d="M321.875 405.119L399.638 423.644L385.868 481.406L308.105 462.882C292.145 459.081 282.302 443.074 286.103 427.117C289.904 411.16 305.915 401.319 321.875 405.119Z" fill="#FB8A00"/>
<path d="M332.02 438.04C329.981 446.623 321.347 451.933 312.762 449.894C304.178 447.856 298.866 439.223 300.905 430.64C302.944 422.058 311.579 416.747 320.163 418.786C328.748 420.824 334.059 429.457 332.02 438.04Z" fill="#43A048"/>
<path d="M282.402 409.775C289.904 415.942 296.348 416.42 298.966 412.091C301.131 408.542 289.199 399.833 277.971 393.969C270.419 390.018 262.464 384.355 262.464 384.355" fill="#B0614E"/>
<path d="M262.464 384.33L228.807 419.994C228.807 419.994 272.912 450.499 279.205 447.881C282.981 446.321 281.773 443.326 281.773 443.326C281.773 443.326 285.876 446.95 288.897 445.742C291.918 444.534 291.465 441.186 291.465 441.186C291.465 441.186 295.467 443.804 297.557 439.928C299.848 435.699 291.515 422.335 282.402 409.75" fill="#B0614E"/>
<path d="M290.03 441.841C290.03 441.841 285.851 432.654 277.569 423.669L279.885 421.529C288.519 430.917 292.723 440.154 292.9 440.557L290.03 441.841Z" fill="#2A2A2A"/>
<path d="M280.489 444.232C280.489 444.232 275.101 436.329 269.211 430.137L271.476 427.972C277.568 434.34 282.88 442.143 283.082 442.47L280.489 444.232Z" fill="#2A2A2A"/>
<path d="M229.889 274.291L213.904 300.945L275.58 380.882L226.843 430.364C226.843 430.364 130.905 380.882 121.012 319.998C110.615 256.018 194.092 166.241 210.102 157.86C222.513 151.366 275.58 147.213 275.58 147.213" fill="#43A048"/>
<path d="M339.446 91.4641C337.13 91.4641 334.814 90.3566 333.405 88.4941C331.794 86.3799 331.416 83.4352 332.448 80.9938L335.343 82.2019C334.764 83.6113 334.965 85.3732 335.897 86.5813C336.828 87.7894 338.465 88.4689 339.975 88.2676L340.378 91.3885C340.076 91.4389 339.748 91.4389 339.446 91.4389V91.4641Z" fill="#2A2A2A"/>
<path d="M501.125 352.715L453.341 426.846L455.986 428.55L503.77 354.419L501.125 352.715Z" fill="#2A2A2A"/>
<path d="M254.992 354.674L199.939 413.885L202.244 416.028L257.297 356.816L254.992 354.674Z" fill="#2A2A2A"/>
<path d="M379.076 720.419L376.022 721.177L399.427 815.314L402.481 814.555L379.076 720.419Z" fill="#43A048"/>
<path d="M150.515 611.414L61.8589 677.507L63.7399 680.029L152.396 613.936L150.515 611.414Z" fill="#43A048"/>
<mask id="mask0_582_12752" style="mask-type:luminance" maskUnits="userSpaceOnUse" x="400" y="785" width="156" height="94">
<path d="M400.368 799.668L410.438 879L555.616 839.007C553.099 828.486 544.414 820.734 535.049 817.663C525.684 814.593 515.917 815.172 506.351 815.449C496.784 815.725 486.841 815.549 477.854 811.145C468.111 806.363 460.207 796.572 457.009 785.321" fill="white"/>
</mask>
<g mask="url(#mask0_582_12752)">
<path d="M559.146 821.185L405.354 865.333L406.222 868.357L560.015 824.209L559.146 821.185Z" fill="#43A048"/>
</g>
<mask id="mask1_582_12752" style="mask-type:luminance" maskUnits="userSpaceOnUse" x="0" y="674" width="103" height="161">
<path d="M74.6913 674.201L0 702.843L73.3822 834.325C82.9987 829.392 88.4615 819.098 89.2419 809.282C90.0223 799.467 87.1021 790.129 84.5595 780.892C82.0169 771.655 79.8268 761.99 81.9666 752.199C84.2826 741.603 91.9103 731.611 102.081 725.822" fill="white"/>
</mask>
<g mask="url(#mask1_582_12752)">
<path d="M13.8743 690.744L11.0798 692.191L88.7256 842.146L91.5201 840.7L13.8743 690.744Z" fill="#43A048"/>
</g>
</g>
<defs>
<clipPath id="clip0_582_12752">
<rect width="604" height="879" fill="white"/>
</clipPath>
</defs>
</svg>
