<svg width="182" height="183" viewBox="0 0 182 183" fill="none" xmlns="http://www.w3.org/2000/svg">
<g clip-path="url(#clip0_107_3786)">
<path d="M134.422 0.838867H47.0694C21.0737 0.838867 0 21.9125 0 47.9083V135.261C0 161.257 21.0737 182.33 47.0694 182.33H134.422C160.418 182.33 181.491 161.257 181.491 135.261V47.9083C181.491 21.9125 160.418 0.838867 134.422 0.838867Z" fill="#F7F7F9"/>
<path d="M49.2251 41.557L77.3318 25.6733L132.265 57.6501V89.5494L105.012 104.859L77.5489 89.5494L104.585 73.3167L49.2251 41.557Z" fill="#43A048"/>
<path d="M49.6748 78.3571V141.667L77.2929 157.496L131.816 126L104.562 109.76L77.448 125.838V62.9077L49.6748 78.3571Z" fill="#43A048"/>
</g>
<defs>
<clipPath id="clip0_107_3786">
<rect width="181.491" height="181.491" fill="white" transform="translate(0 0.838867)"/>
</clipPath>
</defs>
</svg>
